<svg width="143" height="74" viewBox="0 0 143 74" fill="none" xmlns="http://www.w3.org/2000/svg">
<path d="M9 43.6V70H0.700001V-4.76837e-06H25.8C29 -4.76837e-06 32 0.433329 34.8 1.3C37.6667 2.16666 40.1333 3.5 42.2 5.3C44.3333 7.1 46 9.36666 47.2 12.1C48.4667 14.8333 49.1 18.0667 49.1 21.8C49.1 27.2 47.8 31.7333 45.2 35.4C42.6667 39.0667 39 41.3667 34.2 42.3L50.2 70H40.9L25.6 43.6H9ZM26.2 35.6C30.8 35.6 34.3333 34.5 36.8 32.3C39.3333 30.0333 40.6 26.6667 40.6 22.2C40.6 17.8 39.2 14.3333 36.4 11.8C33.6667 9.2 29.9333 7.89999 25.2 7.89999H9V35.6H26.2ZM70.3281 43.6V70H62.0281V-4.76837e-06H87.1281C90.3281 -4.76837e-06 93.3281 0.433329 96.1281 1.3C98.9948 2.16666 101.461 3.5 103.528 5.3C105.661 7.1 107.328 9.36666 108.528 12.1C109.795 14.8333 110.428 18.0667 110.428 21.8C110.428 27.2 109.128 31.7333 106.528 35.4C103.995 39.0667 100.328 41.3667 95.5281 42.3L111.528 70H102.228L86.9281 43.6H70.3281ZM87.5281 35.6C92.1281 35.6 95.6615 34.5 98.1281 32.3C100.661 30.0333 101.928 26.6667 101.928 22.2C101.928 17.8 100.528 14.3333 97.7281 11.8C94.9948 9.2 91.2615 7.89999 86.5281 7.89999H70.3281V35.6H87.5281Z" fill="white"/>
<circle cx="133" cy="64" r="10" fill="#97D0B0"/>
</svg>
