<?xml version="1.0" encoding="UTF-8"?>
<svg version="1.1" xmlns="http://www.w3.org/2000/svg" width="500" height="500">
<path d="M0 0 C0.89288727 -0.02584671 1.78577454 -0.05169342 2.70571899 -0.07832336 C10.9920195 -0.30491992 19.28014373 -0.43835561 27.56878853 -0.5436945 C33.13399246 -0.6157208 38.69486295 -0.71792479 44.2578125 -0.89453125 C49.64111387 -1.06465407 55.02046197 -1.15413425 60.4062767 -1.18954277 C62.44868572 -1.2163704 64.49094433 -1.27085215 66.53180313 -1.35481453 C83.29650488 -2.01304416 83.29650488 -2.01304416 89.98382568 3.82717896 C93.27195995 7.13148341 96.15888098 10.67630227 98.94860458 14.40587044 C100.48448468 16.35333074 102.1154221 18.0422411 103.90188599 19.7596283 C106.49560547 22.36743164 106.49560547 22.36743164 106.49560547 24.36743164 C107.06537109 24.60075195 107.63513672 24.83407227 108.22216797 25.07446289 C111.04334419 26.67894627 112.7379969 28.61178533 114.87060547 31.05493164 C115.65048828 31.9430957 116.43037109 32.83125977 117.23388672 33.74633789 C118.3534375 35.0437793 118.3534375 35.0437793 119.49560547 36.36743164 C120.12853516 37.09833008 120.76146484 37.82922852 121.41357422 38.58227539 C122.78148345 40.17112958 124.13978033 41.76825327 125.49560547 43.36743164 C123.88905014 47.06076263 121.57320942 49.85438148 118.99560547 52.92993164 C116.68320907 55.69654876 114.49642848 58.36619713 112.49560547 61.36743164 C111.83560547 61.36743164 111.17560547 61.36743164 110.49560547 61.36743164 C110.49560547 62.02743164 110.49560547 62.68743164 110.49560547 63.36743164 C109.83560547 63.36743164 109.17560547 63.36743164 108.49560547 63.36743164 C108.22748047 63.93977539 107.95935547 64.51211914 107.68310547 65.10180664 C106.45427911 67.44627798 105.07038371 69.49148102 103.49560547 71.61743164 C102.97998047 72.32383789 102.46435547 73.03024414 101.93310547 73.75805664 C101.45873047 74.28915039 100.98435547 74.82024414 100.49560547 75.36743164 C99.83560547 75.36743164 99.17560547 75.36743164 98.49560547 75.36743164 C98.27388672 75.89852539 98.05216797 76.42961914 97.82373047 76.97680664 C96.03171858 80.20242803 93.66128544 82.85202856 91.24560547 85.61743164 C87.10280879 90.37992643 83.23128304 95.27810485 79.49560547 100.36743164 C79.95 100.81135254 80.40439453 101.25527344 80.87255859 101.71264648 C82.91874065 103.71738023 84.95722837 105.7297638 86.99560547 107.74243164 C87.71103516 108.44110352 88.42646484 109.13977539 89.16357422 109.85961914 C89.84033203 110.52993164 90.51708984 111.20024414 91.21435547 111.89086914 C91.84277344 112.50881348 92.47119141 113.12675781 93.11865234 113.76342773 C94.49560547 115.36743164 94.49560547 115.36743164 94.49560547 117.36743164 C95.15560547 117.36743164 95.81560547 117.36743164 96.49560547 117.36743164 C96.49560547 118.02743164 96.49560547 118.68743164 96.49560547 119.36743164 C97.15560547 119.36743164 97.81560547 119.36743164 98.49560547 119.36743164 C99.69482422 120.59008789 99.69482422 120.59008789 101.18310547 122.42993164 C105.49412553 127.5231199 110.22812658 132.15507059 114.98852539 136.82275391 C118.61549698 140.40183538 122.02394292 144.05286206 125.24926758 148 C126.4708395 149.50496263 126.4708395 149.50496263 128.49560547 150.36743164 C128.49560547 151.02743164 128.49560547 151.68743164 128.49560547 152.36743164 C129.15560547 152.36743164 129.81560547 152.36743164 130.49560547 152.36743164 C131.69482422 153.59008789 131.69482422 153.59008789 133.18310547 155.42993164 C137.63028022 160.70382477 142.56800744 165.46398175 147.51586914 170.26220703 C148.47843628 171.20761353 148.47843628 171.20761353 149.46044922 172.17211914 C150.04431396 172.73914551 150.62817871 173.30617188 151.22973633 173.89038086 C152.49560547 175.36743164 152.49560547 175.36743164 152.49560547 177.36743164 C153.15560547 177.36743164 153.81560547 177.36743164 154.49560547 177.36743164 C154.49560547 178.02743164 154.49560547 178.68743164 154.49560547 179.36743164 C155.45466797 179.73868164 155.45466797 179.73868164 156.43310547 180.11743164 C158.49560547 181.36743164 158.49560547 181.36743164 159.12451172 183.44555664 C159.30820312 184.39688477 159.30820312 184.39688477 159.49560547 185.36743164 C152.8570894 185.4433985 146.21868512 185.4959962 139.57983398 185.53222656 C137.32067679 185.54732766 135.06154897 185.56781006 132.80249023 185.59375 C129.55819454 185.63007472 126.31428591 185.64714473 123.06982422 185.66040039 C122.05724045 185.67588425 121.04465668 185.6913681 120.00138855 185.70732117 C118.59026543 185.70766106 118.59026543 185.70766106 117.15063477 185.70800781 C116.32234665 185.71466965 115.49405853 185.72133148 114.64067078 185.72819519 C111.99264197 185.28284172 111.09504252 184.48894601 109.49560547 182.36743164 C109.49560547 181.70743164 109.49560547 181.04743164 109.49560547 180.36743164 C108.83560547 180.36743164 108.17560547 180.36743164 107.49560547 180.36743164 C106.22607422 179.07446289 106.22607422 179.07446289 104.68310547 177.17993164 C100.65949826 172.41152905 96.24960942 168.08944546 91.76391602 163.76123047 C90.30502213 162.33261028 88.89563777 160.85378172 87.49560547 159.36743164 C87.49560547 158.70743164 87.49560547 158.04743164 87.49560547 157.36743164 C86.83560547 157.36743164 86.17560547 157.36743164 85.49560547 157.36743164 C84.12060547 155.96899414 84.12060547 155.96899414 82.49560547 153.99243164 C79.63515192 150.61948016 76.64690886 147.47069687 73.49560547 144.36743164 C70.60570719 141.51219481 67.81108802 138.65242968 65.18310547 135.55493164 C61.32294427 131.014114 57.04686321 126.8945886 52.76196289 122.75878906 C51.30357917 121.33113061 49.8949265 119.8530266 48.49560547 118.36743164 C48.49560547 117.70743164 48.49560547 117.04743164 48.49560547 116.36743164 C47.83560547 116.36743164 47.17560547 116.36743164 46.49560547 116.36743164 C46.49560547 115.70743164 46.49560547 115.04743164 46.49560547 114.36743164 C45.83560547 114.36743164 45.17560547 114.36743164 44.49560547 114.36743164 C44.49560547 113.70743164 44.49560547 113.04743164 44.49560547 112.36743164 C43.83560547 112.36743164 43.17560547 112.36743164 42.49560547 112.36743164 C42.49560547 111.70743164 42.49560547 111.04743164 42.49560547 110.36743164 C41.83560547 110.36743164 41.17560547 110.36743164 40.49560547 110.36743164 C37.55704626 107.53793589 36.56120968 105.8673187 36.02563477 101.78637695 C36.01956318 100.42270414 36.03537737 99.05880783 36.06982422 97.69555664 C36.07311234 96.97253357 36.07640045 96.2495105 36.07978821 95.50457764 C36.09016902 93.98497437 36.11005099 92.46540948 36.13891602 90.94604492 C36.18322701 88.61102714 36.20038954 86.27703774 36.21240234 83.94165039 C36.22581742 82.46377083 36.24073791 80.98590401 36.25732422 79.50805664 C36.26471115 78.80706848 36.27209808 78.10608032 36.27970886 77.3838501 C36.37725851 72.4857786 36.37725851 72.4857786 37.49560547 71.36743164 C38.41591553 71.37613281 39.33622559 71.38483398 40.28442383 71.39379883 C47.31142249 71.4336791 51.79337793 70.9435766 57.06201172 66.07055664 C58.76202655 64.28521288 60.42742102 62.46631536 62.05810547 60.61743164 C63.33137695 59.25618164 63.33137695 59.25618164 64.63037109 57.86743164 C66.24726323 56.13531853 67.8494038 54.3892694 69.43359375 52.62719727 C71.09603607 50.80532109 72.78737015 49.09815183 74.58544922 47.41430664 C76.83673974 45.46849968 76.83673974 45.46849968 76.49560547 42.36743164 C74.36435129 39.91499904 72.58244495 38.56142602 69.34066772 37.98278809 C66.68152812 37.80789303 64.04722214 37.76155232 61.38232422 37.75805664 C60.41277298 37.74152039 59.44322174 37.72498413 58.44429016 37.70794678 C55.35716404 37.65948419 52.27053048 37.63809939 49.18310547 37.61743164 C47.0860755 37.58927055 44.98906847 37.55934293 42.89208984 37.52758789 C37.75996893 37.45372542 32.62812118 37.40413993 27.49560547 37.36743164 C27.49837085 37.94096249 27.50113623 38.51449333 27.5039854 39.1054039 C27.5702352 53.05995157 27.61968964 67.01447169 27.65104198 80.96914291 C27.66651165 87.71752317 27.68760294 94.46579845 27.72192383 101.21411133 C27.75501592 107.7239162 27.77244806 114.23365288 27.7802372 120.7435379 C27.78578966 123.22989877 27.79663194 125.71625352 27.81279564 128.20256805 C27.83450305 131.67920445 27.83757514 135.15538706 27.83618164 138.63208008 C27.84696747 139.66498169 27.8577533 140.6978833 27.86886597 141.76208496 C27.86267998 143.18391083 27.86267998 143.18391083 27.85636902 144.63446045 C27.8591344 145.45669979 27.86189978 146.27893913 27.86474895 147.12609482 C27.40486077 149.9184083 26.42018256 151.32066636 24.49560547 153.36743164 C23.83560547 153.36743164 23.17560547 153.36743164 22.49560547 153.36743164 C21.83560547 154.68743164 21.17560547 156.00743164 20.49560547 157.36743164 C19.83560547 157.36743164 19.17560547 157.36743164 18.49560547 157.36743164 C18.27791504 157.91109375 18.06022461 158.45475586 17.8359375 159.01489258 C16.04473769 162.15879082 13.61283966 164.49690831 11.05029297 167.00805664 C10.52041779 167.53510193 9.9905426 168.06214722 9.4446106 168.60516357 C7.75792722 170.28068839 6.06440983 171.94910886 4.37060547 173.61743164 C3.22301158 174.75499015 2.07587085 175.893006 0.92919922 177.03149414 C-1.87677591 179.81546629 -4.68889917 182.59308924 -7.50439453 185.36743164 C-8.49439453 185.03743164 -9.48439453 184.70743164 -10.50439453 184.36743164 C-10.59019886 149.82732201 -10.38755177 115.28939552 -10.14858019 80.75032115 C-10.09253662 72.64509377 -10.04074883 64.53985328 -9.99240261 56.43457639 C-9.95424946 50.08212894 -9.91233608 43.72971333 -9.86751598 37.37730944 C-9.84104662 33.61364438 -9.8161824 29.84998532 -9.79532051 26.08628464 C-9.77223281 21.94085492 -9.7413675 17.79551965 -9.7097168 13.65014648 C-9.70396133 12.4121933 -9.69820587 11.17424011 -9.692276 9.89877319 C-9.68248718 8.78155884 -9.67269836 7.66434448 -9.66261292 6.51327515 C-9.65616036 5.537638 -9.64970781 4.56200085 -9.64305973 3.55679893 C-9.32350925 -1.48854321 -3.95975848 0.1001386 0 0 Z " fill="#3671AD" transform="translate(166.50439453125,156.632568359375)"/>
<path d="M0 0 C7.4930168 -0.07593983 14.98593471 -0.12855332 22.47924805 -0.16479492 C25.02941598 -0.17990005 27.57955786 -0.20038533 30.12963867 -0.22631836 C33.79091819 -0.26262504 37.45185485 -0.27970915 41.11328125 -0.29296875 C42.2571077 -0.30845261 43.40093414 -0.32393646 44.579422 -0.33988953 C45.64029526 -0.34011612 46.70116852 -0.34034271 47.79418945 -0.34057617 C48.72906693 -0.34723801 49.6639444 -0.35389984 50.62715149 -0.36076355 C53 0 53 0 54.82536316 1.39628601 C56 3 56 3 56 5 C56.66 5 57.32 5 58 5 C58 5.66 58 6.32 58 7 C58.66 7 59.32 7 60 7 C60 7.66 60 8.32 60 9 C60.66 9 61.32 9 62 9 C63.41015625 10.43359375 63.41015625 10.43359375 65.0625 12.4375 C68.55732115 16.56506772 72.30479777 20.34737953 76.1796875 24.1171875 C80.49575403 28.58144516 79.18424978 34.57735083 79.1875 40.4375 C79.19974609 41.59572266 79.21199219 42.75394531 79.22460938 43.94726562 C79.22654297 45.05650391 79.22847656 46.16574219 79.23046875 47.30859375 C79.23457764 48.32751709 79.23868652 49.34644043 79.24291992 50.39624023 C79 53 79 53 77 56 C76.34 56 75.68 56 75 56 C75 56.66 75 57.32 75 58 C74.34 58 73.68 58 73 58 C73 58.66 73 59.32 73 60 C72.34 60 71.68 60 71 60 C71 60.66 71 61.32 71 62 C70.34 62 69.68 62 69 62 C69 62.66 69 63.32 69 64 C68.34 64 67.68 64 67 64 C66.505 65.485 66.505 65.485 66 67 C65.34 67 64.68 67 64 67 C63.78230957 67.54366211 63.56461914 68.08732422 63.34033203 68.64746094 C61.54913222 71.79135918 59.11723419 74.12947667 56.5546875 76.640625 C56.02481232 77.16767029 55.49493713 77.69471558 54.94900513 78.23773193 C53.26232175 79.91325675 51.56880436 81.58167722 49.875 83.25 C48.72740612 84.38755851 47.58026539 85.52557436 46.43359375 86.6640625 C43.62761863 89.44803465 40.81549536 92.2256576 38 95 C39.35440214 98.04179954 40.86084538 100.08239455 43.2578125 102.3828125 C43.88300781 102.99253906 44.50820313 103.60226562 45.15234375 104.23046875 C45.80332031 104.85566406 46.45429688 105.48085938 47.125 106.125 C48.42377053 107.37293802 49.71828638 108.6253243 51.0078125 109.8828125 C51.58160645 110.43340332 52.15540039 110.98399414 52.74658203 111.55126953 C54 113 54 113 54 115 C54.66 115 55.32 115 56 115 C56 115.66 56 116.32 56 117 C56.66 117 57.32 117 58 117 C58 117.66 58 118.32 58 119 C58.66 119 59.32 119 60 119 C60 119.66 60 120.32 60 121 C60.66 121 61.32 121 62 121 C63.41015625 122.43359375 63.41015625 122.43359375 65.0625 124.4375 C68.49802456 128.52396606 72.23717217 132.1315231 76.1796875 135.7265625 C80.04798718 140.55778656 79.13387812 147.4128671 79.09765625 153.3359375 C79.0962413 154.21528961 79.09482635 155.09464172 79.09336853 156.00064087 C79.08779877 158.79212942 79.0752519 161.58353594 79.0625 164.375 C79.05748109 166.27473842 79.05291887 168.1744781 79.04882812 170.07421875 C79.03783925 174.71617714 79.02059557 179.35807469 79 184 C77.140625 184.61328125 77.140625 184.61328125 75 185 C72.75 183.1875 72.75 183.1875 71 181 C71 180.34 71 179.68 71 179 C70.34 179 69.68 179 69 179 C69 178.34 69 177.68 69 177 C68.34 177 67.68 177 67 177 C67 176.34 67 175.68 67 175 C66.34 175 65.68 175 65 175 C65 174.34 65 173.68 65 173 C64.34 173 63.68 173 63 173 C63 172.34 63 171.68 63 171 C62.34 171 61.68 171 61 171 C61 170.34 61 169.68 61 169 C60.34 169 59.68 169 59 169 C57.5546875 167.53125 57.5546875 167.53125 55.875 165.5 C52.62106119 161.6500766 49.15227282 158.13935665 45.50390625 154.6640625 C44 153 44 153 44 151 C43.34 151 42.68 151 42 151 C42 150.34 42 149.68 42 149 C41.41734375 148.7421875 40.8346875 148.484375 40.234375 148.21875 C37.8197097 146.90165983 36.18259823 145.44911616 34.25 143.5 C33.63640625 142.8915625 33.0228125 142.283125 32.390625 141.65625 C31 140 31 140 31 138 C30.34 138 29.68 138 29 138 C26.375 135.625 26.375 135.625 24 133 C24 132.34 24 131.68 24 131 C23.34 131 22.68 131 22 131 C22 130.34 22 129.68 22 129 C21.34 129 20.68 129 20 129 C20 128.34 20 127.68 20 127 C19.34 127 18.68 127 18 127 C16.60522461 125.57958984 16.60522461 125.57958984 14.96484375 123.5859375 C10.01549627 117.76272286 4.52639476 112.51266052 -0.94335938 107.18359375 C-1.72388672 106.41402344 -2.50441406 105.64445312 -3.30859375 104.8515625 C-4.01814209 104.15885254 -4.72769043 103.46614258 -5.45874023 102.75244141 C-7 101 -7 101 -7 99 C-7.66 99 -8.32 99 -9 99 C-9 98.34 -9 97.68 -9 97 C-9.66 97 -10.32 97 -11 97 C-10.67 95.68 -10.34 94.36 -10 93 C-9.34 93 -8.68 93 -8 93 C-8 92.34 -8 91.68 -8 91 C-7.34 91 -6.68 91 -6 91 C-6 90.34 -6 89.68 -6 89 C-5.34 89 -4.68 89 -4 89 C-4 88.34 -4 87.68 -4 87 C-3.34 87 -2.68 87 -2 87 C-2 86.34 -2 85.68 -2 85 C-1.34 85 -0.68 85 0 85 C0.268125 84.401875 0.53625 83.80375 0.8125 83.1875 C1.99917406 81.00152146 3.09599113 79.58667406 5 78 C5.66 78 6.32 78 7 78 C7.2475 77.38125 7.495 76.7625 7.75 76.125 C9.23740369 73.59641373 10.43678009 73.28160996 13 72 C13.26941406 71.42668945 13.53882813 70.85337891 13.81640625 70.26269531 C15.39945898 67.23634781 17.52696663 65.21346064 19.9375 62.796875 C20.41823975 62.3142218 20.89897949 61.8315686 21.39428711 61.33428955 C22.40721093 60.32000936 23.42264638 59.30823196 24.44042969 58.29882812 C26.00173165 56.74828028 27.55202497 55.18729497 29.1015625 53.625 C30.08790061 52.63998266 31.0748585 51.65558547 32.0625 50.671875 C32.96097656 49.7756543 33.85945313 48.87943359 34.78515625 47.95605469 C37 46 37 46 39 46 C38.00618779 39.29176758 31.87481 34.84544989 27.30273438 30.32006836 C13.44183396 16.59444144 13.44183396 16.59444144 8.49609375 10.7109375 C6.24333789 8.13467883 3.77112657 5.79469105 1.28515625 3.4453125 C0 2 0 2 0 0 Z " fill="#2CB9BB" transform="translate(265,157)"/>
<path d="M0 0 C19.14 0 38.28 0 58 0 C58 0.33 58 0.66 58 1 C46.21612001 1.57744544 34.46782809 2.14704245 22.66796875 1.9375 C20.02525063 1.80981478 20.02525063 1.80981478 18 3 C18 2.34 18 1.68 18 1 C14.04 1 10.08 1 6 1 C6 1.66 6 2.32 6 3 C6.84304687 3.10699219 7.68609375 3.21398437 8.5546875 3.32421875 C12.34786805 4.06823262 15.56172655 5.31834606 19.125 6.8125 C24.69114315 9.1128429 30.26556045 11.16189926 36.0234375 12.9453125 C38.51621022 13.82857842 40.83255904 14.8184633 43.23046875 15.921875 C48.8325322 18.45391412 54.62552203 20.14423204 60.50976562 21.88671875 C61.31994141 22.13292969 62.13011719 22.37914062 62.96484375 22.6328125 C64.05720337 22.95596436 64.05720337 22.95596436 65.17163086 23.28564453 C67 24 67 24 69 26 C69.99 25.505 69.99 25.505 71 25 C73.78515625 25.671875 73.78515625 25.671875 77.0625 26.75 C78.14660156 27.09546875 79.23070312 27.4409375 80.34765625 27.796875 C81.22292969 28.19390625 82.09820312 28.5909375 83 29 C83.495 30.485 83.495 30.485 84 32 C81.058861 34.53822925 79.29530001 35.373275 75.41503906 35.34057617 C74.06409149 35.34023628 74.06409149 35.34023628 72.68585205 35.33988953 C71.72217712 35.32440567 70.7585022 35.30892181 69.765625 35.29296875 C68.77246277 35.28872391 67.77930054 35.28447906 66.75604248 35.28010559 C63.58708472 35.26332634 60.41876522 35.225675 57.25 35.1875 C55.10026961 35.17245221 52.95052924 35.15876397 50.80078125 35.14648438 C45.53363677 35.11342536 40.26686399 35.06323334 35 35 C35.05220703 36.80984375 35.05220703 36.80984375 35.10546875 38.65625 C35.13362984 40.27081928 35.16092749 41.88540379 35.1875 43.5 C35.21263672 44.29148438 35.23777344 45.08296875 35.26367188 45.8984375 C35.33446876 51.65658432 34.25258934 55.7038114 32 61 C31.2561669 63.62580357 30.65296411 66.2734425 30.0625 68.9375 C29.89556641 69.66404785 29.72863281 70.3905957 29.55664062 71.13916016 C28.85895615 74.17748461 28.17429822 77.21861078 27.49560547 80.26123047 C27.1632028 81.74843187 26.82800673 83.23501174 26.48999023 84.72094727 C26.17713325 86.09630209 25.87005916 87.47299379 25.57055664 88.85131836 C24.67936116 92.758417 23.50256796 96.4396537 22.08984375 100.19140625 C19.78579681 106.37533602 18.1590758 112.66520173 16.5625 119.0625 C15.95434022 121.45473635 15.34496276 123.84666346 14.734375 126.23828125 C14.43982422 127.39408691 14.14527344 128.54989258 13.84179688 129.74072266 C12.71788524 134.09229469 11.52962966 138.42370972 10.3125 142.75 C9.91665623 144.16015332 9.52082259 145.57030948 9.125 146.98046875 C8.93808594 147.6461084 8.75117188 148.31174805 8.55859375 148.99755859 C5.47613255 160.03267985 5.47613255 160.03267985 2.875 171.1875 C2 175 2 175 0 179 C0 119.93 0 60.86 0 0 Z " fill="#132C83" transform="translate(158,158)"/>
<path d="M0 0 C0.66 0.99 1.32 1.98 2 3 C1.01 3.33 0.02 3.66 -1 4 C-0.67 5.65 -0.34 7.3 0 9 C-0.66 8.67 -1.32 8.34 -2 8 C-2 7.34 -2 6.68 -2 6 C-6.95 6 -11.9 6 -17 6 C-17 16.23 -17 26.46 -17 37 C-15.68 37.33 -14.36 37.66 -13 38 C-13 39.32 -13 40.64 -13 42 C-12.34 42 -11.68 42 -11 42 C-11.04125 41.21625 -11.0825 40.4325 -11.125 39.625 C-11 37 -11 37 -9 35 C-9.20452773 33.3978661 -9.423191 31.79632876 -9.7109375 30.20703125 C-10.17986344 26.62671831 -10.01802959 23.05682417 -9.9375 19.453125 C-9.88409058 16.86112368 -9.88409058 16.86112368 -11 14 C-10.67 13.01 -10.34 12.02 -10 11 C-3.87067219 13.72414569 -0.66403735 17.50394397 3 23 C3.99 23.33 4.98 23.66 6 24 C6 24.99 6 25.98 6 27 C6.680625 27.165 7.36125 27.33 8.0625 27.5 C11.74256753 29.37918342 13.68033244 31.84752392 16.25390625 35.02734375 C17.94999726 37.08297937 17.94999726 37.08297937 20.21484375 38.62890625 C20.80394531 39.08136719 21.39304688 39.53382813 22 40 C22 40.66 22 41.32 22 42 C22.66 42.185625 23.32 42.37125 24 42.5625 C27.68212052 44.32684941 30.19408034 46.73754741 33.1328125 49.5390625 C34.99865271 51.3081097 34.99865271 51.3081097 38 51 C36.52278578 47.54798361 34.56205999 45.35038064 31.875 42.75 C31.15054688 42.04359375 30.42609375 41.3371875 29.6796875 40.609375 C29.12539062 40.07828125 28.57109375 39.5471875 28 39 C28.495 38.01 28.495 38.01 29 37 C30.83947337 38.78572252 32.67157741 40.57802449 34.5 42.375 C35.02464844 42.88289063 35.54929687 43.39078125 36.08984375 43.9140625 C37.43153181 45.23832604 38.71995815 46.61605865 40 48 C40 48.66 40 49.32 40 50 C40.66 50 41.32 50 42 50 C42 50.66 42 51.32 42 52 C42.66 52 43.32 52 44 52 C45.19921875 53.22265625 45.19921875 53.22265625 46.6875 55.0625 C50.99852006 60.15568826 55.73252111 64.78763895 60.49291992 69.45532227 C64.11989151 73.03440374 67.52833745 76.68543042 70.75366211 80.63256836 C71.97523403 82.13753099 71.97523403 82.13753099 74 83 C74 83.66 74 84.32 74 85 C74.66 85 75.32 85 76 85 C77.19921875 86.22265625 77.19921875 86.22265625 78.6875 88.0625 C83.13467475 93.33639313 88.07240197 98.09655011 93.02026367 102.89477539 C93.6619751 103.52504639 94.30368652 104.15531738 94.96484375 104.8046875 C95.5487085 105.37171387 96.13257324 105.93874023 96.73413086 106.52294922 C98 108 98 108 98 110 C98.66 110 99.32 110 100 110 C100 110.66 100 111.32 100 112 C100.9590625 112.37125 100.9590625 112.37125 101.9375 112.75 C104 114 104 114 104.62890625 116.078125 C104.75136719 116.71234375 104.87382812 117.3465625 105 118 C98.36148394 118.07596686 91.72307965 118.12856456 85.08422852 118.16479492 C82.82507132 118.17989602 80.56594351 118.20037842 78.30688477 118.22631836 C75.06258907 118.26264308 71.81868044 118.27971308 68.57421875 118.29296875 C67.56163498 118.30845261 66.54905121 118.32393646 65.50578308 118.33988953 C64.09465996 118.34022942 64.09465996 118.34022942 62.6550293 118.34057617 C61.82674118 118.34723801 60.99845306 118.35389984 60.14506531 118.36076355 C57.4970365 117.91541008 56.59943706 117.12151437 55 115 C55 114.34 55 113.68 55 113 C54.34 113 53.68 113 53 113 C51.73046875 111.70703125 51.73046875 111.70703125 50.1875 109.8125 C46.16389279 105.04409741 41.75400395 100.72201382 37.26831055 96.39379883 C35.80941666 94.96517864 34.4000323 93.48635008 33 92 C33 91.34 33 90.68 33 90 C32.34 90 31.68 90 31 90 C29.625 88.6015625 29.625 88.6015625 28 86.625 C25.13954645 83.25204852 22.15130339 80.10326523 19 77 C16.11010172 74.14476317 13.31548255 71.28499804 10.6875 68.1875 C6.8273388 63.64668235 2.55125775 59.52715696 -1.73364258 55.39135742 C-3.1920263 53.96369897 -4.60067897 52.48559496 -6 51 C-6 50.34 -6 49.68 -6 49 C-6.66 49 -7.32 49 -8 49 C-8 48.34 -8 47.68 -8 47 C-8.66 47 -9.32 47 -10 47 C-10 46.34 -10 45.68 -10 45 C-10.66 45 -11.32 45 -12 45 C-12 44.34 -12 43.68 -12 43 C-12.66 43 -13.32 43 -14 43 C-16.9385592 40.17050425 -17.93439579 38.49988706 -18.4699707 34.41894531 C-18.47604229 33.0552725 -18.4602281 31.69137619 -18.42578125 30.328125 C-18.42084908 29.24359039 -18.42084908 29.24359039 -18.41581726 28.137146 C-18.40543645 26.61754273 -18.38555448 25.09797784 -18.35668945 23.57861328 C-18.31237846 21.2435955 -18.29521593 18.9096061 -18.28320312 16.57421875 C-18.26978805 15.09633919 -18.25486756 13.61847237 -18.23828125 12.140625 C-18.23089432 11.43963684 -18.22350739 10.73864868 -18.21589661 10.01641846 C-18.11834696 5.11834696 -18.11834696 5.11834696 -17 4 C-13.44169919 3.75428613 -9.88428436 3.61560863 -6.3203125 3.4765625 C-3.02920747 3.28813676 -3.02920747 3.28813676 -1.0546875 1.4609375 C-0.70664063 0.97882813 -0.35859375 0.49671875 0 0 Z " fill="#1F87AB" transform="translate(221,224)"/>
<path d="M0 0 C6.1196459 -0.17376678 12.23783909 -0.30040804 18.359375 -0.38452148 C20.43905672 -0.41960318 22.51856727 -0.46728314 24.59765625 -0.52807617 C27.59678451 -0.61353984 30.59362119 -0.6528106 33.59375 -0.68359375 C34.51490601 -0.71972275 35.43606201 -0.75585175 36.38513184 -0.79307556 C42.89001439 -0.79698242 46.00641429 0.9194595 50.61584473 5.49278259 C51.30100159 6.23885521 51.30100159 6.23885521 52 7 C50.26764715 10.65107961 48.10162108 13.45829303 45.5 16.5625 C43.18760361 19.32911711 41.00082301 21.99876548 39 25 C38.34 25 37.68 25 37 25 C37 25.66 37 26.32 37 27 C36.34 27 35.68 27 35 27 C34.731875 27.57234375 34.46375 28.1446875 34.1875 28.734375 C32.95867364 31.07884634 31.57477824 33.12404938 30 35.25 C29.484375 35.95640625 28.96875 36.6628125 28.4375 37.390625 C27.963125 37.92171875 27.48875 38.4528125 27 39 C26.34 39 25.68 39 25 39 C24.77828125 39.53109375 24.5565625 40.0621875 24.328125 40.609375 C22.53585697 43.83545745 20.16411996 46.48290796 17.75 49.25 C13.63109362 54.03639981 9.71064131 58.88533225 6 64 C6.47050781 64.44988281 6.94101563 64.89976562 7.42578125 65.36328125 C9 67 9 67 10.1875 69.1875 C12.87365681 73.35567437 16.43073778 76.58334282 20 80 C19.505 81.485 19.505 81.485 19 83 C15.25979364 82.39950815 13.14356081 80.76172691 10.25 78.375 C9.37472656 77.653125 8.49945313 76.93125 7.59765625 76.1875 C6.74042969 75.465625 5.88320312 74.74375 5 74 C4.25621094 73.38125 3.51242188 72.7625 2.74609375 72.125 C-0.33786641 69.50334127 -3.16897899 66.92552649 -5.6875 63.75 C-7.83831959 60.88971674 -7.83831959 60.88971674 -10.8125 59.3125 C-11.534375 58.879375 -12.25625 58.44625 -13 58 C-13 57.01 -13 56.02 -13 55 C-13.598125 54.9175 -14.19625 54.835 -14.8125 54.75 C-17.62932273 53.78423221 -18.47799132 52.51131433 -20 50 C-20 49.34 -20 48.68 -20 48 C-20.5775 47.731875 -21.155 47.46375 -21.75 47.1875 C-24.0325868 45.98280141 -25.9737942 44.59201885 -28 43 C-29.08592491 46.25777473 -28.84737074 46.86355134 -28 50 C-27.95750472 51.43687174 -27.95916391 52.87558015 -28 54.3125 C-28.05032989 57.36249139 -27.85983645 59.88303035 -27.375 62.9375 C-27.189375 64.4534375 -27.189375 64.4534375 -27 66 C-27.99 66.99 -27.99 66.99 -29 68 C-29.64767793 70.57061311 -29.64767793 70.57061311 -30 73 C-30.66 73 -31.32 73 -32 73 C-32.103125 72.360625 -32.20625 71.72125 -32.3125 71.0625 C-32.539375 70.381875 -32.76625 69.70125 -33 69 C-33.99 68.67 -34.98 68.34 -36 68 C-36 57.77 -36 47.54 -36 37 C-31.05 37 -26.1 37 -21 37 C-20.67 37.33 -20.34 37.66 -20 38 C-20 37.01 -20 36.02 -20 35 C-19.34 34.34 -18.68 33.68 -18 33 C-17.85981445 32.37085693 -17.71962891 31.74171387 -17.57519531 31.09350586 C-16.85420776 28.46936823 -15.73789479 27.39335944 -13.796875 25.50390625 C-13.14589844 24.86259766 -12.49492187 24.22128906 -11.82421875 23.56054688 C-11.13972656 22.90119141 -10.45523438 22.24183594 -9.75 21.5625 C-8.74646484 20.57926758 -8.74646484 20.57926758 -7.72265625 19.57617188 C-2.53099958 14.49161225 -2.53099958 14.49161225 -0.40039062 12.51904297 C0.78704325 11.40069463 1.90212381 10.2063872 3 9 C3 5.44044831 2.10658705 4.72100827 0 2 C0 1.34 0 0.68 0 0 Z " fill="#1D549C" transform="translate(240,193)"/>
<path d="M0 0 C5.99959229 4.95618494 11.80855449 10.19226619 17 16 C17 16.66 17 17.32 17 18 C17.66 18 18.32 18 19 18 C19 18.66 19 19.32 19 20 C19.66 20 20.32 20 21 20 C21 20.66 21 21.32 21 22 C21.66 22 22.32 22 23 22 C23 22.66 23 23.32 23 24 C23.66 24 24.32 24 25 24 C26.41015625 25.43359375 26.41015625 25.43359375 28.0625 27.4375 C31.49802456 31.52396606 35.23717217 35.1315231 39.1796875 38.7265625 C43.04798718 43.55778656 42.13387812 50.4128671 42.09765625 56.3359375 C42.0962413 57.21528961 42.09482635 58.09464172 42.09336853 59.00064087 C42.08779877 61.79212942 42.0752519 64.58353594 42.0625 67.375 C42.05748109 69.27473842 42.05291887 71.1744781 42.04882812 73.07421875 C42.03783925 77.71617714 42.02059557 82.35807469 42 87 C40.140625 87.61328125 40.140625 87.61328125 38 88 C35.75 86.1875 35.75 86.1875 34 84 C34 83.34 34 82.68 34 82 C33.34 82 32.68 82 32 82 C32 81.34 32 80.68 32 80 C31.34 80 30.68 80 30 80 C30 79.34 30 78.68 30 78 C29.34 78 28.68 78 28 78 C28 77.34 28 76.68 28 76 C27.34 76 26.68 76 26 76 C26 75.34 26 74.68 26 74 C25.34 74 24.68 74 24 74 C24 73.34 24 72.68 24 72 C23.34 72 22.68 72 22 72 C20.5546875 70.53125 20.5546875 70.53125 18.875 68.5 C15.62106119 64.6500766 12.15227282 61.13935665 8.50390625 57.6640625 C7 56 7 56 7 54 C6.34 54 5.68 54 5 54 C5 53.34 5 52.68 5 52 C4.41734375 51.7421875 3.8346875 51.484375 3.234375 51.21875 C0.8197097 49.90165983 -0.81740177 48.44911616 -2.75 46.5 C-3.67039062 45.58734375 -3.67039062 45.58734375 -4.609375 44.65625 C-6 43 -6 43 -6 41 C-6.66 41 -7.32 41 -8 41 C-10.625 38.625 -10.625 38.625 -13 36 C-13 35.34 -13 34.68 -13 34 C-13.66 34 -14.32 34 -15 34 C-14.67 33.34 -14.34 32.68 -14 32 C-11.69 32.33 -9.38 32.66 -7 33 C-6.67 34.32 -6.34 35.64 -6 37 C-5.443125 36.855625 -4.88625 36.71125 -4.3125 36.5625 C-1.88615805 35.97230872 0.54906345 35.476571 3 35 C3 33.02 3 31.04 3 29 C2.34 29 1.68 29 1 29 C-0.82567145 24.3528363 -2.38262254 19.82269425 -3.52734375 14.96484375 C-4.25325238 11.94722359 -5.13106191 8.97921631 -6 6 C-4.68 4.68 -3.36 3.36 -2 2 C-0.33333333 3.66666667 1.33333333 5.33333333 3 7 C2.690625 6.401875 2.38125 5.80375 2.0625 5.1875 C1 3 1 3 0 0 Z " fill="#2CD4BE" transform="translate(302,254)"/>
<path d="M0 0 C19.14 0 38.28 0 58 0 C58 0.33 58 0.66 58 1 C46.21612001 1.57744544 34.46782809 2.14704245 22.66796875 1.9375 C20.02525063 1.80981478 20.02525063 1.80981478 18 3 C18 2.34 18 1.68 18 1 C14.04 1 10.08 1 6 1 C6 1.66 6 2.32 6 3 C6.84304687 3.10699219 7.68609375 3.21398437 8.5546875 3.32421875 C12.34786805 4.06823262 15.56172655 5.31834606 19.125 6.8125 C24.69114315 9.1128429 30.26556045 11.16189926 36.0234375 12.9453125 C38.51621022 13.82857842 40.83255904 14.8184633 43.23046875 15.921875 C48.8325322 18.45391412 54.62552203 20.14423204 60.50976562 21.88671875 C61.31994141 22.13292969 62.13011719 22.37914062 62.96484375 22.6328125 C64.05720337 22.95596436 64.05720337 22.95596436 65.17163086 23.28564453 C67 24 67 24 69 26 C69.99 25.505 69.99 25.505 71 25 C73.78515625 25.671875 73.78515625 25.671875 77.0625 26.75 C78.14660156 27.09546875 79.23070312 27.4409375 80.34765625 27.796875 C81.22292969 28.19390625 82.09820312 28.5909375 83 29 C83.495 30.485 83.495 30.485 84 32 C81.058861 34.53822925 79.29530001 35.373275 75.41503906 35.34057617 C74.06409149 35.34023628 74.06409149 35.34023628 72.68585205 35.33988953 C71.72217712 35.32440567 70.7585022 35.30892181 69.765625 35.29296875 C68.77246277 35.28872391 67.77930054 35.28447906 66.75604248 35.28010559 C63.58708472 35.26332634 60.41876522 35.225675 57.25 35.1875 C55.10026961 35.17245221 52.95052924 35.15876397 50.80078125 35.14648438 C45.53360862 35.11342518 40.26691249 35.06164754 35 35 C35 40.61 35 46.22 35 52 C27.37604396 50.47520879 20.10051752 48.06270171 13.0625 44.75 C9.9167795 43.30251267 7.51993156 42.36001244 4 43 C1.57994862 45.42005138 1.73670762 46.04311221 1.68115234 49.35791016 C1.66128265 50.25869293 1.64141296 51.15947571 1.62094116 52.08755493 C1.60361435 53.54855118 1.60361435 53.54855118 1.5859375 55.0390625 C1.56657135 56.03505463 1.5472052 57.03104675 1.5272522 58.05722046 C1.46735035 61.2463925 1.42102862 64.43560043 1.375 67.625 C1.33682999 69.78387013 1.29777884 71.94272488 1.2578125 74.1015625 C1.1616403 79.40090534 1.07662411 84.70034043 1 90 C0.67 90 0.34 90 0 90 C0 60.3 0 30.6 0 0 Z " fill="#142A82" transform="translate(158,158)"/>
<path d="M0 0 C0.33 0 0.66 0 1 0 C1.33 57.75 1.66 115.5 2 175 C4.45280299 165.49320519 4.45280299 165.49320519 6 156 C6.66 156 7.32 156 8 156 C8.12375 154.205625 8.12375 154.205625 8.25 152.375 C8.69991116 148.30844976 9.62473022 144.57902611 10.79296875 140.66015625 C12.29993629 135.49225142 13.7192885 130.3173103 15.03515625 125.09765625 C15.20226105 124.43781738 15.36936584 123.77797852 15.54153442 123.09814453 C16.22349918 120.40097249 16.90287699 117.70319529 17.57543945 115.00366211 C18.07769915 112.9919912 18.58717296 110.98225372 19.09765625 108.97265625 C19.39164307 107.79968994 19.68562988 106.62672363 19.98852539 105.41821289 C21.06881023 101.76746028 22.47254403 98.4840075 24 95 C24.66270096 92.53583439 25.26294003 90.0543404 25.8125 87.5625 C26.14829943 86.08430752 26.48563793 84.60646413 26.82421875 83.12890625 C27.00774902 82.32340332 27.1912793 81.51790039 27.38037109 80.68798828 C28.58811225 75.44873292 29.84977502 70.22318177 31.125 65 C31.37870361 63.93080322 31.63240723 62.86160645 31.89379883 61.76000977 C32.13767334 60.76670654 32.38154785 59.77340332 32.6328125 58.75 C32.84824707 57.85796875 33.06368164 56.9659375 33.28564453 56.046875 C34 54 34 54 36 53 C36 85.01 36 117.02 36 150 C34.02 150.99 34.02 150.99 32 152 C30.73195434 154.0335948 30.73195434 154.0335948 30 156 C29.34 156 28.68 156 28 156 C27.78230957 156.54366211 27.56461914 157.08732422 27.34033203 157.64746094 C25.54913222 160.79135918 23.11723419 163.12947667 20.5546875 165.640625 C20.02481232 166.16767029 19.49493713 166.69471558 18.94900513 167.23773193 C17.26232175 168.91325675 15.56880436 170.58167722 13.875 172.25 C12.72740612 173.38755851 11.58026539 174.52557436 10.43359375 175.6640625 C7.62761863 178.44803465 4.81549536 181.2256576 2 184 C1.01 183.67 0.02 183.34 -1 183 C-1.10267411 146.84824784 -0.82867479 110.69972479 -0.55461788 74.5493592 C-0.49287434 66.39625484 -0.43300462 58.243137 -0.37324238 50.09001791 C-0.25081645 33.39333019 -0.12619439 16.69665968 0 0 Z " fill="#1E60A0" transform="translate(157,158)"/>
<path d="M0 0 C3 0 3 0 4.60546875 1.4609375 C5.12753906 2.09257812 5.64960938 2.72421875 6.1875 3.375 C6.98220703 4.31472656 6.98220703 4.31472656 7.79296875 5.2734375 C9 7 9 7 9 9 C9.72574219 9.21398437 10.45148438 9.42796875 11.19921875 9.6484375 C14.75998632 11.36674375 16.39289787 13.51924204 18.8125 16.625 C19.60269531 17.62789062 20.39289063 18.63078125 21.20703125 19.6640625 C21.79871094 20.43492187 22.39039063 21.20578125 23 22 C21.84826645 24.46800047 20.95216435 26.04783565 19 28 C18.3574765 30.06874034 18.3574765 30.06874034 18 32 C18.99 32.33 19.98 32.66 21 33 C21.79956055 34.73413086 21.79956055 34.73413086 22.38671875 36.96484375 C22.7105957 38.16463867 22.7105957 38.16463867 23.04101562 39.38867188 C23.25435547 40.22978516 23.46769531 41.07089844 23.6875 41.9375 C23.91244141 42.77474609 24.13738281 43.61199219 24.36914062 44.47460938 C26 50.63618446 26 50.63618446 26 53 C26.66 53 27.32 53 28 53 C28 54.98 28 56.96 28 59 C27.195625 59.12375 26.39125 59.2475 25.5625 59.375 C24.716875 59.58125 23.87125 59.7875 23 60 C22.505 60.99 22.505 60.99 22 62 C21.01 61.67 20.02 61.34 19 61 C18.3125 58.9375 18.3125 58.9375 18 57 C17.46375 57.20625 16.9275 57.4125 16.375 57.625 C13.16732692 58.1314747 10.98682934 57.15400225 8 56 C8 55.34 8 54.68 8 54 C7.34 54 6.68 54 6 54 C4.60522461 52.57958984 4.60522461 52.57958984 2.96484375 50.5859375 C-1.98450373 44.76272286 -7.47360524 39.51266052 -12.94335938 34.18359375 C-13.72388672 33.41402344 -14.50441406 32.64445312 -15.30859375 31.8515625 C-16.01814209 31.15885254 -16.72769043 30.46614258 -17.45874023 29.75244141 C-19 28 -19 28 -19 26 C-19.66 26 -20.32 26 -21 26 C-21 25.34 -21 24.68 -21 24 C-21.66 24 -22.32 24 -23 24 C-22.67 22.68 -22.34 21.36 -22 20 C-21.34 20 -20.68 20 -20 20 C-20 19.34 -20 18.68 -20 18 C-19.34 18 -18.68 18 -18 18 C-18 17.34 -18 16.68 -18 16 C-17.34 16 -16.68 16 -16 16 C-16 15.34 -16 14.68 -16 14 C-15.34 14 -14.68 14 -14 14 C-14 13.34 -14 12.68 -14 12 C-13.34 12 -12.68 12 -12 12 C-11.731875 11.401875 -11.46375 10.80375 -11.1875 10.1875 C-8.95750527 6.07961497 -5.96768714 4.33991806 -2 2 C-1.34 1.34 -0.68 0.68 0 0 Z " fill="#0F8386" transform="translate(277,230)"/>
<path d="M0 0 C6.17464913 -0.12372902 12.34857456 -0.21440144 18.52416992 -0.2746582 C20.6242327 -0.29978051 22.72420823 -0.33388458 24.82397461 -0.37719727 C27.8451084 -0.43794871 30.86508496 -0.46623263 33.88671875 -0.48828125 C34.82335861 -0.51408768 35.75999847 -0.5398941 36.72502136 -0.56648254 C41.32222362 -0.56845425 43.34964029 -0.48651509 47.13208008 2.34301758 C49 5 49 5 49 8 C42.98683509 10.83104175 36.99250479 13.05283316 30.625 14.9375 C24.43131965 16.82518319 18.63606858 18.93960302 12.80859375 21.78515625 C8.5855072 23.61183207 4.19802227 24.81576633 -0.21044922 26.11425781 C-4.98533537 27.56523453 -9.10304019 29.40174472 -13.30078125 32.08203125 C-15 33 -15 33 -18 33 C-17.41890137 29.54700597 -16.28785339 27.92870743 -13.796875 25.50390625 C-13.14589844 24.86259766 -12.49492187 24.22128906 -11.82421875 23.56054688 C-11.13972656 22.90119141 -10.45523438 22.24183594 -9.75 21.5625 C-9.08097656 20.90701172 -8.41195312 20.25152344 -7.72265625 19.57617188 C-2.53099958 14.49161225 -2.53099958 14.49161225 -0.40039062 12.51904297 C0.78704325 11.40069463 1.90212381 10.2063872 3 9 C3 5.44044831 2.10658705 4.72100827 0 2 C0 1.34 0 0.68 0 0 Z " fill="#1C4286" transform="translate(240,193)"/>
<path d="M0 0 C15 0 15 0 19.0625 3.6875 C20.04861037 5.1202456 21.0283489 6.55740936 22 8 C22.99 8.825 23.98 9.65 25 10.5 C28.78979769 13.65816475 31.80937135 17.25302224 35 21 C39.20527557 25.80717569 43.42471521 30.53909733 48 35 C49.43884913 36.4361496 50.8762582 37.8737429 52.3125 39.3125 C53.00988281 40.00988281 53.70726562 40.70726562 54.42578125 41.42578125 C54.94527344 41.94527344 55.46476562 42.46476562 56 43 C55.67 43.99 55.34 44.98 55 46 C51.25979364 45.39950815 49.14356081 43.76172691 46.25 41.375 C45.37472656 40.653125 44.49945313 39.93125 43.59765625 39.1875 C42.74042969 38.465625 41.88320312 37.74375 41 37 C40.25621094 36.38125 39.51242188 35.7625 38.74609375 35.125 C35.66213359 32.50334127 32.83102101 29.92552649 30.3125 26.75 C28.16168041 23.88971674 28.16168041 23.88971674 25.1875 22.3125 C24.465625 21.879375 23.74375 21.44625 23 21 C23 20.01 23 19.02 23 18 C22.401875 17.9175 21.80375 17.835 21.1875 17.75 C18.37067727 16.78423221 17.52200868 15.51131433 16 13 C16 12.34 16 11.68 16 11 C15.4225 10.731875 14.845 10.46375 14.25 10.1875 C11.9674132 8.98280141 10.0262058 7.59201885 8 6 C6.91407509 9.25777473 7.15262926 9.86355134 8 13 C8.04249528 14.43687174 8.04083609 15.87558015 8 17.3125 C7.94967011 20.36249139 8.14016355 22.88303035 8.625 25.9375 C8.74875 26.948125 8.8725 27.95875 9 29 C8.34 29.66 7.68 30.32 7 31 C6.35232207 33.57061311 6.35232207 33.57061311 6 36 C5.34 36 4.68 36 4 36 C3.896875 35.360625 3.79375 34.72125 3.6875 34.0625 C3.460625 33.381875 3.23375 32.70125 3 32 C2.01 31.67 1.02 31.34 0 31 C0 20.77 0 10.54 0 0 Z " fill="#052463" transform="translate(204,230)"/>
<path d="M0 0 C5.589375 -0.020625 11.17875 -0.04125 16.9375 -0.0625 C18.70343506 -0.071604 20.46937012 -0.08070801 22.28881836 -0.09008789 C23.68082605 -0.09300714 25.07283459 -0.09555567 26.46484375 -0.09765625 C27.55835144 -0.1053302 27.55835144 -0.1053302 28.6739502 -0.11315918 C30.44970076 -0.11347011 32.22534208 -0.06228515 34 0 C35 1 35 1 35.09765625 4.59765625 C35.0909822 6.08596867 35.07902183 7.57426432 35.0625 9.0625 C35.05798828 9.82111328 35.05347656 10.57972656 35.04882812 11.36132812 C35.0370068 13.24091871 35.01907078 15.12046899 35 17 C27.38928873 15.62507223 20.05070433 13.0392553 13.0625 9.75 C9.9167795 8.30251267 7.51993156 7.36001244 4 8 C1.57994862 10.42005138 1.73670762 11.04311221 1.68115234 14.35791016 C1.66128265 15.25869293 1.64141296 16.15947571 1.62094116 17.08755493 C1.60361435 18.54855118 1.60361435 18.54855118 1.5859375 20.0390625 C1.56657135 21.03505463 1.5472052 22.03104675 1.5272522 23.05722046 C1.46735035 26.2463925 1.42102862 29.43560043 1.375 32.625 C1.33682999 34.78387013 1.29777884 36.94272488 1.2578125 39.1015625 C1.1616403 44.40090534 1.07662411 49.70034043 1 55 C0.67 55 0.34 55 0 55 C0 36.85 0 18.7 0 0 Z " fill="#020A4C" transform="translate(158,193)"/>
<path d="M0 0 C4.90687153 3.9939652 9.44270563 8.3040953 13.9375 12.75 C14.52942139 13.32903076 15.12134277 13.90806152 15.73120117 14.50463867 C17.19409125 15.96410929 18.60214515 17.47812494 20 19 C20 19.66 20 20.32 20 21 C20.66 21 21.32 21 22 21 C22 21.66 22 22.32 22 23 C22.639375 23.2475 23.27875 23.495 23.9375 23.75 C26 25 26 25 26.62890625 27.078125 C26.75136719 27.71234375 26.87382812 28.3465625 27 29 C20.36148394 29.07596686 13.72307965 29.12856456 7.08422852 29.16479492 C4.82507132 29.17989602 2.56594351 29.20037842 0.30688477 29.22631836 C-2.93741093 29.26264308 -6.18131956 29.27971308 -9.42578125 29.29296875 C-10.43836502 29.30845261 -11.45094879 29.32393646 -12.49421692 29.33988953 C-13.90534004 29.34022942 -13.90534004 29.34022942 -15.3449707 29.34057617 C-16.17325882 29.34723801 -17.00154694 29.35389984 -17.85493469 29.36076355 C-20.5029635 28.91541008 -21.40056294 28.12151437 -23 26 C-23 25.34 -23 24.68 -23 24 C-23.66 24 -24.32 24 -25 24 C-26.5078125 22.25 -26.5078125 22.25 -28.125 20 C-28.66382813 19.2575 -29.20265625 18.515 -29.7578125 17.75 C-30.37269531 16.88375 -30.37269531 16.88375 -31 16 C-28.625 15.875 -28.625 15.875 -26 16 C-25.34 16.66 -24.68 17.32 -24 18 C-23.67 17.01 -23.34 16.02 -23 15 C-22.01 15.33 -21.02 15.66 -20 16 C-20.33 16.99 -20.66 17.98 -21 19 C-20.34 19 -19.68 19 -19 19 C-19 20.65 -19 22.3 -19 24 C-12.55840145 25.86121896 -12.55840145 25.86121896 -6.02734375 25.49609375 C-3.18110481 24.79961524 -0.58945837 25.36987368 2.28125 25.73828125 C11.36590898 26.85567307 11.36590898 26.85567307 20 25 C19.43410156 24.52949219 18.86820312 24.05898438 18.28515625 23.57421875 C17.18494141 22.64029297 17.18494141 22.64029297 16.0625 21.6875 C15.33160156 21.07261719 14.60070312 20.45773437 13.84765625 19.82421875 C12 18 12 18 11 15 C10.29875 14.773125 9.5975 14.54625 8.875 14.3125 C4.59756692 12.35975881 1.36235455 9.07176018 -1 5 C-0.6953125 2.23828125 -0.6953125 2.23828125 0 0 Z " fill="#7CD3CE" transform="translate(299,313)"/>
<path d="M0 0 C4.95 0 9.9 0 15 0 C15.33 1.65 15.66 3.3 16 5 C15.01 5.66 14.02 6.32 13 7 C12.67 6.34 12.34 5.68 12 5 C8.87802522 6.3089572 8.87802522 6.3089572 7 9 C7.31541229 10.33768605 7.65130526 11.67060131 8 13 C8.04249528 14.43687174 8.04083609 15.87558015 8 17.3125 C7.94967011 20.36249139 8.14016355 22.88303035 8.625 25.9375 C8.74875 26.948125 8.8725 27.95875 9 29 C8.34 29.66 7.68 30.32 7 31 C6.35232207 33.57061311 6.35232207 33.57061311 6 36 C5.34 36 4.68 36 4 36 C3.896875 35.360625 3.79375 34.72125 3.6875 34.0625 C3.460625 33.381875 3.23375 32.70125 3 32 C2.01 31.67 1.02 31.34 0 31 C0 20.77 0 10.54 0 0 Z " fill="#031C56" transform="translate(204,230)"/>
<path d="M0 0 C0 3.46924732 -0.37491821 3.75856556 -2.625 6.1875 C-5.57807227 9.46247115 -8.1613093 12.89518818 -10.703125 16.49609375 C-11.13109375 16.99238281 -11.5590625 17.48867187 -12 18 C-12.66 18 -13.32 18 -14 18 C-14 18.66 -14 19.32 -14 20 C-14.66 20 -15.32 20 -16 20 C-16.268125 20.57234375 -16.53625 21.1446875 -16.8125 21.734375 C-18.04132636 24.07884634 -19.42522176 26.12404938 -21 28.25 C-21.515625 28.95640625 -22.03125 29.6628125 -22.5625 30.390625 C-23.036875 30.92171875 -23.51125 31.4528125 -24 32 C-24.66 32 -25.32 32 -26 32 C-26.22171875 32.53109375 -26.4434375 33.0621875 -26.671875 33.609375 C-28.46414303 36.83545745 -30.83588004 39.48290796 -33.25 42.25 C-37.36890638 47.03639981 -41.28935869 51.88533225 -45 57 C-44.01 58.32 -43.02 59.64 -42 61 C-46.2742558 59.4169423 -48.26531794 56.49431596 -51 53 C-42.42585551 42.75285171 -42.42585551 42.75285171 -38 39 C-37.34 39 -36.68 39 -36 39 C-35.67261841 38.18257324 -35.67261841 38.18257324 -35.33862305 37.34863281 C-33.55652341 34.22191413 -31.1380162 31.91100199 -28.58203125 29.421875 C-28.04656174 28.89160706 -27.51109222 28.36133911 -26.95939636 27.81500244 C-25.24846248 26.12182944 -23.53101232 24.43547792 -21.8125 22.75 C-19.5655836 20.53990779 -17.32192603 18.32658342 -15.08203125 16.109375 C-14.27622116 15.31194885 -14.27622116 15.31194885 -13.45413208 14.49841309 C-9.90293556 10.960791 -6.51404296 7.32681315 -3.27612305 3.49707031 C-2 2 -2 2 0 0 Z " fill="#DCDFDD" transform="translate(291,200)"/>
<path d="M0 0 C14.19 0 28.38 0 43 0 C43 0.66 43 1.32 43 2 C29.95593197 6.40544939 16.49413838 9.33265865 3 12 C3.99 10.35 4.98 8.7 6 7 C5.38125 6.773125 4.7625 6.54625 4.125 6.3125 C2 5 2 5 0 0 Z " fill="#061F53" transform="translate(240,193)"/>
<path d="M0 0 C0.33 0 0.66 0 1 0 C1.33 59.73 1.66 119.46 2 181 C6.95 176.05 11.9 171.1 17 166 C17.66 166.33 18.32 166.66 19 167 C13.39 172.61 7.78 178.22 2 184 C1.01 183.67 0.02 183.34 -1 183 C-1.10267411 146.84824784 -0.82867479 110.69972479 -0.55461788 74.5493592 C-0.49287434 66.39625484 -0.43300462 58.243137 -0.37324238 50.09001791 C-0.25081645 33.39333019 -0.12619439 16.69665968 0 0 Z " fill="#9FA8C9" transform="translate(157,158)"/>
<path d="M0 0 C4.07272519 3.37949537 8.02923271 6.86344245 11.875 10.5 C12.63554687 11.2115625 13.39609375 11.923125 14.1796875 12.65625 C18.00591118 17.58271826 17.13422657 24.35588798 17.09765625 30.3359375 C17.0962413 31.21528961 17.09482635 32.09464172 17.09336853 33.00064087 C17.08779877 35.79212942 17.0752519 38.58353594 17.0625 41.375 C17.05748109 43.27473842 17.05291887 45.1744781 17.04882812 47.07421875 C17.03783925 51.71617714 17.02059557 56.35807469 17 61 C15.140625 61.61328125 15.140625 61.61328125 13 62 C10.75 60.1875 10.75 60.1875 9 58 C9 57.34 9 56.68 9 56 C8.34 56 7.68 56 7 56 C7 55.34 7 54.68 7 54 C6.34 54 5.68 54 5 54 C5 53.34 5 52.68 5 52 C4.34 52 3.68 52 3 52 C3 51.34 3 50.68 3 50 C2.34 50 1.68 50 1 50 C1 49.34 1 48.68 1 48 C0.34 48 -0.32 48 -1 48 C-1 47.34 -1 46.68 -1 46 C-1.66 46 -2.32 46 -3 46 C-3.66 44.68 -4.32 43.36 -5 42 C-3.35 42.33 -1.7 42.66 0 43 C0 43.99 0 44.98 0 46 C1.0828125 46.3403125 1.0828125 46.3403125 2.1875 46.6875 C5.56432417 48.26335128 7.55767039 50.20876616 10 53 C10 53.66 10 54.32 10 55 C10.66 55 11.32 55 12 55 C12 55.66 12 56.32 12 57 C12.66 57 13.32 57 14 57 C13.9278125 56.1234375 13.855625 55.246875 13.78125 54.34375 C13.30109988 47.78169838 12.9534785 41.31800422 13.109375 34.734375 C13.13064453 33.66251953 13.15191406 32.59066406 13.17382812 31.48632812 C13.22413334 29.34900151 13.29535031 27.21205267 13.38867188 25.07617188 C13.6650077 19.18276397 13.6650077 19.18276397 10.671875 14.359375 C8.00424934 12.91900508 8.00424934 12.91900508 5 12 C4.05078125 10.15234375 4.05078125 10.15234375 3.3125 7.9375 C2.93544922 6.83728516 2.93544922 6.83728516 2.55078125 5.71484375 C2.36902344 5.14894531 2.18726563 4.58304687 2 4 C1.34 4 0.68 4 0 4 C0 2.68 0 1.36 0 0 Z " fill="#82EDDB" transform="translate(327,280)"/>
<path d="M0 0 C4.82915718 3.25968109 4.82915718 3.25968109 5.5625 6.4375 C4.42123545 11.63659407 0.66920311 14.26468929 -3.3125 17.4375 C-5.42757886 19.13813405 -5.42757886 19.13813405 -7 21 C-7.02087138 24.21406972 -7.02087138 24.21406972 -6 27 C-6.66 27.99 -7.32 28.98 -8 30 C-8.66 30 -9.32 30 -10 30 C-10 29.34 -10 28.68 -10 28 C-12.58333229 30.24958334 -12.58333229 30.24958334 -15 33 C-15 34.32 -15 35.64 -15 37 C-15 39 -15 41 -15 43 C-17.86697492 41.71480435 -19.97607712 40.42870746 -22 38 C-22 37.34 -22 36.68 -22 36 C-24.71224618 37.61268692 -27.37352812 39.24901874 -30 41 C-28.58226538 37.45566346 -27.32387762 36.66193881 -24 35 C-23.72986084 34.42596436 -23.45972168 33.85192871 -23.18139648 33.26049805 C-21.60697094 30.24797354 -19.4968189 28.2372606 -17.09765625 25.83203125 C-16.61928818 25.35174973 -16.1409201 24.8714682 -15.64805603 24.37663269 C-14.63932849 23.36654855 -13.62808837 22.3589681 -12.61450195 21.35375977 C-11.06419691 19.81418516 -9.52487407 18.26420663 -7.98632812 16.71289062 C-7.003245 15.73112872 -6.01954184 14.7499872 -5.03515625 13.76953125 C-4.1419165 12.87854736 -3.24867676 11.98756348 -2.32836914 11.06958008 C0 9 0 9 3 8 C2.37240135 5.07120629 1.41377341 2.63904371 0 0 Z " fill="#289A9D" transform="translate(302,194)"/>
<path d="M0 0 C0.99 0 1.98 0 3 0 C3.66 2.64 4.32 5.28 5 8 C4.11356812 8.40424194 4.11356812 8.40424194 3.20922852 8.81665039 C1.00621416 9.99667145 -0.53533318 11.22547325 -2.34765625 12.93359375 C-3.25547852 13.7834082 -3.25547852 13.7834082 -4.18164062 14.65039062 C-4.80232422 15.24013672 -5.42300781 15.82988281 -6.0625 16.4375 C-6.68705078 17.02337891 -7.31160156 17.60925781 -7.95507812 18.21289062 C-10.6761888 20.77137355 -13.36822409 23.34942922 -16 26 C-16.66 24.35 -17.32 22.7 -18 21 C-17.34 21 -16.68 21 -16 21 C-15.896875 20.05125 -15.79375 19.1025 -15.6875 18.125 C-15 15 -15 15 -12 13 C-11.855625 12.38125 -11.71125 11.7625 -11.5625 11.125 C-10.5386355 7.25706744 -7.66184761 5.40971519 -4.375 3.375 C-3.59125 2.92125 -2.8075 2.4675 -2 2 C-1.34 1.34 -0.68 0.68 0 0 Z " fill="#07505C" transform="translate(277,230)"/>
<path d="M0 0 C17.49 0 34.98 0 53 0 C53 1.32 53 2.64 53 4 C52.01 4 51.02 4 50 4 C50 3.34 50 2.68 50 2 C34.16 2.495 34.16 2.495 18 3 C17.67 3.66 17.34 4.32 17 5 C16.01 5 15.02 5 14 5 C14 6.65 14 8.3 14 10 C8.02484972 9.1464071 3.94793837 6.53281812 0 2 C0 1.34 0 0.68 0 0 Z " fill="#8DC1D1" transform="translate(265,157)"/>
<path d="M0 0 C0.99 0.33 1.98 0.66 3 1 C2.67 1.99 2.34 2.98 2 4 C2.66 4 3.32 4 4 4 C4 5.65 4 7.3 4 9 C10.44159855 10.86121896 10.44159855 10.86121896 16.97265625 10.49609375 C19.82115509 9.79906224 22.41588999 10.37078244 25.2890625 10.73828125 C31.70478481 11.35766654 38.77088695 11.90040737 45 10 C45.66 10.99 46.32 11.98 47 13 C40.93109825 13.07408977 34.86245903 13.12857359 28.79321289 13.16479492 C26.72806209 13.17989271 24.6629434 13.20037274 22.59790039 13.22631836 C19.63159261 13.26265795 16.66570829 13.2797163 13.69921875 13.29296875 C12.7741301 13.30845261 11.84904144 13.32393646 10.8959198 13.33988953 C10.03525406 13.34011612 9.17458832 13.34034271 8.2878418 13.34057617 C7.53061325 13.34723801 6.7733847 13.35389984 5.99320984 13.36076355 C3.46255042 12.90272363 2.71198794 11.85876815 1 10 C0.01 9.67 -0.98 9.34 -2 9 C-3.60546875 7.15234375 -3.60546875 7.15234375 -5.1875 4.9375 C-5.71730469 4.20402344 -6.24710937 3.47054688 -6.79296875 2.71484375 C-7.19128906 2.14894531 -7.58960938 1.58304687 -8 1 C-5.625 0.875 -5.625 0.875 -3 1 C-2.34 1.66 -1.68 2.32 -1 3 C-0.67 2.01 -0.34 1.02 0 0 Z " fill="#33B6B6" transform="translate(276,328)"/>
<path d="M0 0 C4.17443363 3.50074982 8.3145494 6.97950843 12 11 C12 11.66 12 12.32 12 13 C12.56847656 13.23074219 13.13695312 13.46148437 13.72265625 13.69921875 C16.57986975 15.33121205 18.28719372 17.32679067 20.4375 19.8125 C23.52665683 23.3349544 26.63428141 26.74285298 30 30 C29.67 30.66 29.34 31.32 29 32 C28.34 31.030625 27.68 30.06125 27 29.0625 C22.61793775 24.55342145 16.54924502 25.20083514 10.6796875 25.10546875 C7.84789965 25.02430286 5.66123584 24.86179917 3 24 C3.33 23.34 3.66 22.68 4 22 C6.64 22 9.28 22 12 22 C12.33 20.35 12.66 18.7 13 17 C11.68 16.67 10.36 16.34 9 16 C8.814375 14.989375 8.62875 13.97875 8.4375 12.9375 C7.26383791 8.6601537 4.70444561 6.37314843 1.4609375 3.48046875 C0 2 0 2 0 0 Z " fill="#50A2C1" transform="translate(261,168)"/>
<path d="M0 0 C4.17443363 3.50074982 8.3145494 6.97950843 12 11 C12 11.66 12 12.32 12 13 C12.66 13 13.32 13 14 13 C14 13.66 14 14.32 14 15 C14.66 15 15.32 15 16 15 C17.19921875 16.22265625 17.19921875 16.22265625 18.6875 18.0625 C24.66763621 25.12877206 31.4184 31.500908 38 38 C37.505 38.99 37.505 38.99 37 40 C36.55269531 39.4946875 36.10539062 38.989375 35.64453125 38.46875 C32.14104337 34.32676828 32.14104337 34.32676828 27.25 32.8125 C26.5075 32.874375 25.765 32.93625 25 33 C23.1875 31.25 23.1875 31.25 22 29 C22 27.68 22 26.36 22 25 C21.01 24.67 20.02 24.34 19 24 C17.60287726 22.04402816 16.26220093 20.04563599 15 18 C13.02 18.99 13.02 18.99 11 20 C7.7 17.03 4.4 14.06 1 11 C1.99 11 2.98 11 4 11 C5 12 6 13 7 14 C7.99 14 8.98 14 10 14 C8.53023536 10.54992089 6.59081481 8.43506916 3.875 5.875 C2.54605277 4.62172237 1.24452827 3.33714433 0 2 C0 1.34 0 0.68 0 0 Z " fill="#72AABA" transform="translate(249,261)"/>
<path d="M0 0 C0.66 0.66 1.32 1.32 2 2 C1.57589844 2.4125 1.15179688 2.825 0.71484375 3.25 C-2.40241068 6.31929667 -5.40975009 9.42147468 -8.25 12.75 C-11.32044728 16.31115803 -14.5582285 19.67038109 -17.875 23 C-18.60831543 23.74008301 -18.60831543 23.74008301 -19.35644531 24.49511719 C-22.87621085 28 -22.87621085 28 -24 28 C-24.3125 25.8125 -24.3125 25.8125 -24 23 C-21.82453396 20.48103932 -19.989803 18.4949015 -17 17 C-15.51580952 14.16067908 -14.13295784 11.29390682 -12.8125 8.375 C-10.23290885 4.99484608 -6.96547276 3.43108795 -3 2 C-2.01 2 -1.02 2 0 2 C0 1.34 0 0.68 0 0 Z " fill="#27629D" transform="translate(289,199)"/>
<path d="M0 0 C1.32 0 2.64 0 4 0 C4 0.66 4 1.32 4 2 C4.5775 1.773125 5.155 1.54625 5.75 1.3125 C8 1 8 1 10.25 2.4375 C10.8275 2.953125 11.405 3.46875 12 4 C12.66 3.67 13.32 3.34 14 3 C14.66 3.66 15.32 4.32 16 5 C15.34 5.66 14.68 6.32 14 7 C14.33 7.99 14.66 8.98 15 10 C14.67 10.66 14.34 11.32 14 12 C15.32 12.33 16.64 12.66 18 13 C18 12.34 18 11.68 18 11 C20.24244261 12.1212213 21.4491508 13.02619193 23 15 C23.1875 17.6875 23.1875 17.6875 23 20 C24.32 19.67 25.64 19.34 27 19 C26.67 20.98 26.34 22.96 26 25 C21.47865782 21.28245198 17.22584239 17.35952636 13.0625 13.25 C12.56580811 12.76619873 12.06911621 12.28239746 11.55737305 11.78393555 C10.33152671 10.56151636 9.16065173 9.28448257 8 8 C8 7.34 8 6.68 8 6 C7.4225 5.938125 6.845 5.87625 6.25 5.8125 C3.11309013 4.67972699 1.90832496 2.65802405 0 0 Z " fill="#2F97AD" transform="translate(272,165)"/>
<path d="M0 0 C0.33 0 0.66 0 1 0 C1 20.13 1 40.26 1 61 C0.67 61 0.34 61 0 61 C-0.79120398 54.64434172 -1.18090587 48.40482677 -1.28125 42.00390625 C-1.3189974 40.12825495 -1.35675819 38.25260391 -1.39453125 36.37695312 C-1.44839787 33.45160042 -1.50063995 30.52622349 -1.55224609 27.60083008 C-1.60383813 24.75593155 -1.66107668 21.91118695 -1.71875 19.06640625 C-1.73232544 18.18626358 -1.74590088 17.30612091 -1.7598877 16.39930725 C-1.72248098 12.06250377 -1.72248098 12.06250377 -3 8 C-2.44140625 6.0546875 -2.44140625 6.0546875 -1.5625 3.875 C-1.27503906 3.15054688 -0.98757812 2.42609375 -0.69140625 1.6796875 C-0.46324219 1.12539062 -0.23507813 0.57109375 0 0 Z " fill="#2A4D88" transform="translate(192,211)"/>
<path d="M0 0 C0.7734375 0.495 0.7734375 0.495 1.5625 1 C4.09237505 2.24169326 4.09237505 2.24169326 7.4375 1.8125 C11 2 11 2 13.4375 4 C14.283125 4.99 15.12875 5.98 16 7 C17.42810926 8.44682979 18.86614632 9.88390855 20.3125 11.3125 C21.54166667 12.54166667 22.77083333 13.77083333 24 15 C23.67 15.99 23.34 16.98 23 18 C19.25979364 17.39950815 17.14356081 15.76172691 14.25 13.375 C13.37988281 12.65828125 12.50976562 11.9415625 11.61328125 11.203125 C10.75089844 10.47609375 9.88851562 9.7490625 9 9 C8.20980469 8.33484375 7.41960937 7.6696875 6.60546875 6.984375 C1.15477129 2.30954259 1.15477129 2.30954259 0 0 Z " fill="#15466A" transform="translate(236,258)"/>
<path d="M0 0 C4.62409693 0.835628 6.77676317 3.6483501 9.75 7.0625 C10.25660156 7.63033203 10.76320312 8.19816406 11.28515625 8.78320312 C12.53113136 10.1819865 13.76660973 11.59010733 15 13 C12 15 12 15 10.1328125 14.875 C7.27092996 13.70089434 5.2448556 11.98077483 2.875 10 C-0.37869505 7.21840292 -0.37869505 7.21840292 -4 5 C-4 4.34 -4 3.68 -4 3 C-2.68 3.33 -1.36 3.66 0 4 C0 2.68 0 1.36 0 0 Z " fill="#083565" transform="translate(231,246)"/>
<path d="M0 0 C0 0.66 0 1.32 0 2 C-0.66 2 -1.32 2 -2 2 C-2 2.66 -2 3.32 -2 4 C-2.66 4 -3.32 4 -4 4 C-4.33 4.99 -4.66 5.98 -5 7 C-5.66 7 -6.32 7 -7 7 C-7.21398437 7.54140625 -7.42796875 8.0828125 -7.6484375 8.640625 C-9.48077943 11.8392797 -11.99796606 14.20964484 -14.625 16.75 C-15.140625 17.25660156 -15.65625 17.76320312 -16.1875 18.28515625 C-17.45383339 19.52803902 -18.7263144 20.76465276 -20 22 C-20.66 21.34 -21.32 20.68 -22 20 C-21.625 17.875 -21.625 17.875 -21 16 C-19.68 15.67 -18.36 15.34 -17 15 C-16.67 13.02 -16.34 11.04 -16 9 C-14.68 9 -13.36 9 -12 9 C-12 8.34 -12 7.68 -12 7 C-10.390625 5.2734375 -10.390625 5.2734375 -8.25 3.375 C-7.55390625 2.74335938 -6.8578125 2.11171875 -6.140625 1.4609375 C-4 0 -4 0 0 0 Z " fill="#37C7B5" transform="translate(336,217)"/>
<path d="M0 0 C0.99 0.99 1.98 1.98 3 3 C-6 12 -6 12 -8.4765625 14.46875 C-10.1966033 16.194116 -11.90584934 17.93029505 -13.60546875 19.67578125 C-14.88357422 20.98095703 -14.88357422 20.98095703 -16.1875 22.3125 C-17.47720703 23.63701172 -17.47720703 23.63701172 -18.79296875 24.98828125 C-21 27 -21 27 -23 27 C-22.505 25.515 -22.505 25.515 -22 24 C-21.34 24 -20.68 24 -20 24 C-20 22.35 -20 20.7 -20 19 C-19.01 18.67 -18.02 18.34 -17 18 C-17 17.34 -17 16.68 -17 16 C-16.360625 15.87625 -15.72125 15.7525 -15.0625 15.625 C-14.381875 15.41875 -13.70125 15.2125 -13 15 C-12.67 14.34 -12.34 13.68 -12 13 C-11.34 13 -10.68 13 -10 13 C-10 12.34 -10 11.68 -10 11 C-9.34 11 -8.68 11 -8 11 C-8 10.34 -8 9.68 -8 9 C-7.34 8.67 -6.68 8.34 -6 8 C-5.71125 7.21625 -5.4225 6.4325 -5.125 5.625 C-3.86499529 2.68498901 -2.66110125 1.68536412 0 0 Z " fill="#2B6299" transform="translate(262,225)"/>
<path d="M0 0 C0.33 0 0.66 0 1 0 C1.33 11.22 1.66 22.44 2 34 C6.95 29.05 11.9 24.1 17 19 C17.66 19.33 18.32 19.66 19 20 C13.39 25.61 7.78 31.22 2 37 C1.01 36.67 0.02 36.34 -1 36 C-1.02465098 31.03377651 -1.04283649 26.06758834 -1.05493164 21.10131836 C-1.0599719 19.41055684 -1.06680405 17.71979971 -1.07543945 16.02905273 C-1.08751857 13.60399293 -1.09323123 11.17899056 -1.09765625 8.75390625 C-1.10281754 7.99348526 -1.10797882 7.23306427 -1.11329651 6.44960022 C-1.11349238 4.6326743 -1.06197277 2.81586873 -1 1 C-0.67 0.67 -0.34 0.34 0 0 Z " fill="#C1D1DF" transform="translate(157,305)"/>
<path d="M0 0 C0 0.99 0 1.98 0 3 C-0.99 3.33 -1.98 3.66 -3 4 C-4.20882096 6.00016466 -4.20882096 6.00016466 -5 8 C-5.66 8 -6.32 8 -7 8 C-7.309375 8.804375 -7.309375 8.804375 -7.625 9.625 C-10.59598311 14.7566981 -14.88932002 18.11705232 -20 21 C-21.68477344 22.31037934 -23.35648543 23.63823078 -25 25 C-24.835 24.071875 -24.67 23.14375 -24.5 22.1875 C-23.92251612 19.04378647 -23.92251612 19.04378647 -24 16 C-23.07767578 15.83564453 -23.07767578 15.83564453 -22.13671875 15.66796875 C-21.32847656 15.50941406 -20.52023438 15.35085938 -19.6875 15.1875 C-18.88699219 15.03667969 -18.08648437 14.88585937 -17.26171875 14.73046875 C-14.71584187 13.90822527 -13.59597449 13.13313096 -12 11 C-12 10.01 -12 9.02 -12 8 C-11.401875 7.731875 -10.80375 7.46375 -10.1875 7.1875 C-7.99556112 6.13168678 -7.99556112 6.13168678 -6.5625 4.5625 C-4.59754256 2.59754256 -2.40742934 1.36637882 0 0 Z " fill="#357DA9" transform="translate(192,306)"/>
<path d="M0 0 C8.91 1.65 17.82 3.3 27 5 C27 5.33 27 5.66 27 6 C22.88850113 6.16728213 18.77680194 6.32787468 14.66479492 6.48217773 C13.26498319 6.53566026 11.86524096 6.59099434 10.46557617 6.64819336 C8.4577104 6.72992949 6.44955813 6.80453025 4.44140625 6.87890625 C2.62684937 6.94960327 2.62684937 6.94960327 0.77563477 7.02172852 C-2 7 -2 7 -3 6 C-4.34747084 5.76924918 -5.70377565 5.58846937 -7.0625 5.4375 C-8.361875 5.293125 -9.66125 5.14875 -11 5 C-11 4.67 -11 4.34 -11 4 C-5.555 3.505 -5.555 3.505 0 3 C0 2.01 0 1.02 0 0 Z " fill="#165793" transform="translate(241,187)"/>
<path d="M0 0 C0.99 0.33 1.98 0.66 3 1 C2.67 1.66 2.34 2.32 2 3 C1.01 3 0.02 3 -1 3 C-1.89503976 8.14647863 -1.89503976 11.85352137 -1 17 C-0.34 17 0.32 17 1 17 C2.5 19.5 2.5 19.5 4 22 C5.62836738 23.7041054 7.28769752 25.38025441 9 27 C8.67 27.66 8.34 28.32 8 29 C5.82722286 26.88094537 3.66173092 24.75527122 1.5 22.625 C0.87996094 22.02171875 0.25992187 21.4184375 -0.37890625 20.796875 C-0.96542969 20.21679688 -1.55195313 19.63671875 -2.15625 19.0390625 C-2.70087891 18.50490723 -3.24550781 17.97075195 -3.80664062 17.42041016 C-5 16 -5 16 -5 14 C-5.66 14 -6.32 14 -7 14 C-7 13.34 -7 12.68 -7 12 C-7.66 12 -8.32 12 -9 12 C-8.67 10.68 -8.34 9.36 -8 8 C-7.34 8 -6.68 8 -6 8 C-6 7.34 -6 6.68 -6 6 C-5.34 6 -4.68 6 -4 6 C-4 5.34 -4 4.68 -4 4 C-3.34 4 -2.68 4 -2 4 C-2 3.34 -2 2.68 -2 2 C-1.34 2 -0.68 2 0 2 C0 1.34 0 0.68 0 0 Z " fill="#7AA0A3" transform="translate(263,242)"/>
<path d="M0 0 C0.66 0 1.32 0 2 0 C8.33485194 11.52164009 8.33485194 11.52164009 11 17 C10.01 17 9.02 17 8 17 C8 16.34 8 15.68 8 15 C7.43796875 14.92652344 6.8759375 14.85304688 6.296875 14.77734375 C3.16063671 13.71592977 1.55535342 11.91682334 -0.75 9.5625 C-1.54921875 8.75941406 -2.3484375 7.95632813 -3.171875 7.12890625 C-5 5 -5 5 -5 3 C-3.68 3 -2.36 3 -1 3 C-0.67 2.01 -0.34 1.02 0 0 Z " fill="#21CCB4" transform="translate(315,304)"/>
<path d="M0 0 C10 0 10 0 14 1 C14 1.99 14 2.98 14 4 C13.30132812 3.90460938 12.60265625 3.80921875 11.8828125 3.7109375 C10.97273437 3.60007813 10.06265625 3.48921875 9.125 3.375 C8.22007812 3.25898438 7.31515625 3.14296875 6.3828125 3.0234375 C5.59648437 3.01570312 4.81015625 3.00796875 4 3 C1.57994862 5.42005138 1.73670762 6.04311221 1.68115234 9.35791016 C1.66128265 10.25869293 1.64141296 11.15947571 1.62094116 12.08755493 C1.60361435 13.54855118 1.60361435 13.54855118 1.5859375 15.0390625 C1.56657135 16.03505463 1.5472052 17.03104675 1.5272522 18.05722046 C1.46735035 21.2463925 1.42102862 24.43560043 1.375 27.625 C1.33682999 29.78387013 1.29777884 31.94272488 1.2578125 34.1015625 C1.1616403 39.40090534 1.07662411 44.70034043 1 50 C0.67 50 0.34 50 0 50 C0 33.5 0 17 0 0 Z " fill="#0C1261" transform="translate(158,198)"/>
<path d="M0 0 C-1 2 -1 2 -4 4 C-4.35015049 5.66321482 -4.68197057 7.33034549 -5 9 C-6.5625 11.3125 -6.5625 11.3125 -8 13 C-7.01 14.32 -6.02 15.64 -5 17 C-9.2742558 15.4169423 -11.26531794 12.49431596 -14 9 C-5.39177489 -1.7972583 -5.39177489 -1.7972583 0 0 Z " fill="#C4C5C4" transform="translate(254,244)"/>
<path d="M0 0 C0.66 0.66 1.32 1.32 2 2 C1.50628906 2.40992188 1.01257813 2.81984375 0.50390625 3.2421875 C-0.13675781 3.78101563 -0.77742188 4.31984375 -1.4375 4.875 C-2.07558594 5.40867188 -2.71367187 5.94234375 -3.37109375 6.4921875 C-5.10805004 7.9222757 -5.10805004 7.9222757 -6 10 C-5.21625 9.979375 -4.4325 9.95875 -3.625 9.9375 C-1 10 -1 10 1 11 C1 11.66 1 12.32 1 13 C0.34 13 -0.32 13 -1 13 C0.90884692 17.54170996 0.90884692 17.54170996 3 22 C-1.25177923 21.52758009 -3.29969203 19.15035929 -6 16 C-6 15.01 -6 14.02 -6 13 C-6.66 13 -7.32 13 -8 13 C-7.88759583 8.3914291 -6.61543768 6.27090202 -3.4375 3.125 C-2.30330262 2.07067568 -1.16107206 1.02465367 0 0 Z " fill="#0F717A" transform="translate(270,246)"/>
<path d="M0 0 C0.66 0.99 1.32 1.98 2 3 C1.01 3.33 0.02 3.66 -1 4 C-0.67 5.65 -0.34 7.3 0 9 C-0.66 8.67 -1.32 8.34 -2 8 C-2 7.34 -2 6.68 -2 6 C-6.95 6 -11.9 6 -17 6 C-17 16.56 -17 27.12 -17 38 C-17.33 38 -17.66 38 -18 38 C-18.02465288 33.31860746 -18.04283739 28.63725241 -18.05493164 23.95581055 C-18.05997157 22.36205386 -18.0668035 20.76830181 -18.07543945 19.17456055 C-18.08751999 16.88849747 -18.09323155 14.60249533 -18.09765625 12.31640625 C-18.10281754 11.59973282 -18.10797882 10.88305939 -18.11329651 10.14466858 C-18.11349263 8.42936328 -18.06192007 6.71418734 -18 5 C-15.62454132 2.62454132 -9.53729222 3.60207095 -6.3203125 3.4765625 C-3.02920747 3.28813676 -3.02920747 3.28813676 -1.0546875 1.4609375 C-0.70664063 0.97882813 -0.35859375 0.49671875 0 0 Z " fill="#A1ABC5" transform="translate(221,224)"/>
<path d="M0 0 C0.33 0 0.66 0 1 0 C1.07415168 4.78715623 1.12860204 9.57397827 1.16479492 14.36157227 C1.17988243 15.99021223 1.20035506 17.61881156 1.22631836 19.24731445 C1.26270449 21.58815535 1.2797262 23.92845919 1.29296875 26.26953125 C1.30845261 26.99775589 1.32393646 27.72598053 1.33988953 28.47627258 C1.34156915 33.52033044 1.34156915 33.52033044 -0.3815918 35.94018555 C-2.23106574 37.15131338 -3.83029058 37.62591217 -6 38 C-6.495 36.515 -6.495 36.515 -7 35 C-4 33 -4 33 -2 33 C-1.97494385 32.28457031 -1.9498877 31.56914062 -1.92407227 30.83203125 C-1.80720848 27.5545453 -1.68489577 24.27728384 -1.5625 21 C-1.52318359 19.87464844 -1.48386719 18.74929688 -1.44335938 17.58984375 C-1.21827453 11.66838092 -0.85527916 5.86477138 0 0 Z " fill="#326C95" transform="translate(192,272)"/>
<path d="M0 0 C4.25661311 1.52021897 5.59183547 4.31692484 8 8 C9.92429697 10.09492429 11.94039691 12.03401524 14 14 C13.67 14.99 13.34 15.98 13 17 C11.35 16.67 9.7 16.34 8 16 C8.33 14.68 8.66 13.36 9 12 C6.69 11.67 4.38 11.34 2 11 C2.020625 10.236875 2.04125 9.47375 2.0625 8.6875 C2.12942841 5.89814214 2.12942841 5.89814214 1 3 C0.34 3 -0.32 3 -1 3 C-0.67 2.01 -0.34 1.02 0 0 Z " fill="#2781AB" transform="translate(256,164)"/>
<path d="M0 0 C0 3.46924732 -0.37491821 3.75856556 -2.625 6.1875 C-5.57807227 9.46247115 -8.1613093 12.89518818 -10.703125 16.49609375 C-11.13109375 16.99238281 -11.5590625 17.48867187 -12 18 C-12.66 18 -13.32 18 -14 18 C-14 18.66 -14 19.32 -14 20 C-14.66 20 -15.32 20 -16 20 C-16.2475 20.5775 -16.495 21.155 -16.75 21.75 C-18.16683317 24.3002997 -19.87627537 26.01785701 -22 28 C-22.37890625 25.89453125 -22.37890625 25.89453125 -22 23 C-20.24727935 20.61893093 -18.10535924 18.68780664 -15.9375 16.6875 C-14.74033441 15.54099434 -13.54500988 14.3925631 -12.3515625 13.2421875 C-11.7730957 12.68885742 -11.19462891 12.13552734 -10.59863281 11.56542969 C-7.99093846 9.01189636 -5.62455114 6.27257059 -3.26953125 3.48828125 C-2 2 -2 2 0 0 Z " fill="#D5E1EC" transform="translate(291,200)"/>
<path d="M0 0 C0.66 0.33 1.32 0.66 2 1 C1.37432129 1.60473145 0.74864258 2.20946289 0.10400391 2.83251953 C-2.22625427 5.09435533 -4.54718251 7.36526004 -6.86230469 9.64257812 C-7.86357848 10.62381351 -8.86842308 11.60141955 -9.87695312 12.57519531 C-11.33130797 13.98068844 -12.77205277 15.39900604 -14.2109375 16.8203125 C-15.08024902 17.66867676 -15.94956055 18.51704102 -16.84521484 19.39111328 C-19.16196919 22.19610273 -20.0850154 24.50520517 -21 28 C-21.7425 28.103125 -22.485 28.20625 -23.25 28.3125 C-26.17014018 29.04253504 -27.73187554 30.06789398 -30 32 C-28.58226538 28.45566346 -27.32387762 27.66193881 -24 26 C-23.73203613 25.42668945 -23.46407227 24.85337891 -23.18798828 24.26269531 C-21.59058984 21.2202192 -19.43425609 19.21087384 -16.9921875 16.796875 C-16.50670441 16.3142218 -16.02122131 15.8315686 -15.52102661 15.33428955 C-13.97700134 13.80141438 -12.42615176 12.27565996 -10.875 10.75 C-9.82375991 9.70879639 -8.77297343 8.66713459 -7.72265625 7.625 C-5.15366996 5.07800536 -2.57851839 2.53734823 0 0 Z " fill="#C7F0F1" transform="translate(302,203)"/>
<path d="M0 0 C1.65 0 3.3 0 5 0 C5.12375 0.639375 5.2475 1.27875 5.375 1.9375 C5.684375 2.9584375 5.684375 2.9584375 6 4 C6.66 4.33 7.32 4.66 8 5 C8 5.66 8 6.32 8 7 C9.093125 7.474375 10.18625 7.94875 11.3125 8.4375 C12.23482422 8.83775391 12.23482422 8.83775391 13.17578125 9.24609375 C14.75711021 9.89961942 16.37675406 10.45891802 18 11 C17.67 13.31 17.34 15.62 17 18 C6.75285171 9.42585551 6.75285171 9.42585551 3 5 C3 4.34 3 3.68 3 3 C2.34 3 1.68 3 1 3 C0.67 2.01 0.34 1.02 0 0 Z " fill="#65BBCC" transform="translate(251,311)"/>
<path d="M0 0 C4.17443363 3.50074982 8.3145494 6.97950843 12 11 C12 11.66 12 12.32 12 13 C12.66 13 13.32 13 14 13 C14.33 14.32 14.66 15.64 15 17 C13.68 17.99 12.36 18.98 11 20 C7.7 17.03 4.4 14.06 1 11 C1.99 11 2.98 11 4 11 C5 12 6 13 7 14 C7.99 14 8.98 14 10 14 C8.53023536 10.54992089 6.59081481 8.43506916 3.875 5.875 C2.54605277 4.62172237 1.24452827 3.33714433 0 2 C0 1.34 0 0.68 0 0 Z " fill="#6392AA" transform="translate(249,261)"/>
<path d="M0 0 C0.66 0.33 1.32 0.66 2 1 C1.01 2.32 0.02 3.64 -1 5 C0.65 5.33 2.3 5.66 4 6 C3.43040847 9.62613199 2.07625466 11.25517741 -0.5625 13.75 C-1.52349609 14.67039062 -1.52349609 14.67039062 -2.50390625 15.609375 C-2.99761719 16.06828125 -3.49132812 16.5271875 -4 17 C-5.28080392 13.15758823 -4.30805584 11.77882797 -3 8 C-2.835 6.741875 -2.67 5.48375 -2.5 4.1875 C-2.335 3.135625 -2.17 2.08375 -2 1 C-1.34 0.67 -0.68 0.34 0 0 Z " fill="#226DA4" transform="translate(163,323)"/>
<path d="M0 0 C0.33 0 0.66 0 1 0 C1 12.87 1 25.74 1 39 C1.66 39 2.32 39 3 39 C2.46599103 42.91606575 1.80330533 45.39338934 0 49 C0 32.83 0 16.66 0 0 Z " fill="#1C4A84" transform="translate(158,288)"/>
<path d="M0 0 C5.69453376 1.48553055 5.69453376 1.48553055 7.1875 4 C7.455625 4.66 7.72375 5.32 8 6 C8.99 6.66 9.98 7.32 11 8 C11.33 7.34 11.66 6.68 12 6 C12.33 7.65 12.66 9.3 13 11 C13.99 11 14.98 11 16 11 C16.680625 12.60875 16.680625 12.60875 17.375 14.25 C18.50088537 16.88062317 19.67920206 19.46000396 21 22 C17.07372825 19.14452964 14.10340135 15.90192498 10.98046875 12.234375 C8.04906364 8.92714872 4.88845227 5.8663901 1.72265625 2.78515625 C0 1 0 1 0 0 Z " fill="#7EACC6" transform="translate(219,278)"/>
<path d="M0 0 C0.71542969 0.0721875 1.43085938 0.144375 2.16796875 0.21875 C15.68404265 1.78338522 15.68404265 1.78338522 29 0 C29.66 0.99 30.32 1.98 31 3 C26.58334712 3.02902168 22.16671877 3.04680608 17.75 3.0625 C15.86861328 3.07506836 15.86861328 3.07506836 13.94921875 3.08789062 C12.14130859 3.09272461 12.14130859 3.09272461 10.296875 3.09765625 C8.63156738 3.10551147 8.63156738 3.10551147 6.93261719 3.11352539 C4.42842621 3.01658493 2.3818844 2.73230276 0 2 C0 1.34 0 0.68 0 0 Z " fill="#33C4BE" transform="translate(292,338)"/>
<path d="M0 0 C0.66 0.66 1.32 1.32 2 2 C1.88271462 8.09883958 0.02942919 10.76393342 -4 15 C-4.99 13.68 -5.98 12.36 -7 11 C-6.34 10.67 -5.68 10.34 -5 10 C-4.7834375 8.5459375 -4.7834375 8.5459375 -4.5625 7.0625 C-4.376875 6.051875 -4.19125 5.04125 -4 4 C-3.01 3.34 -2.02 2.68 -1 2 C-0.67 1.34 -0.34 0.68 0 0 Z " fill="#03444E" transform="translate(266,241)"/>
<path d="M0 0 C0.66 1.32 1.32 2.64 2 4 C0.68 4 -0.64 4 -2 4 C-1.87625 5.051875 -1.7525 6.10375 -1.625 7.1875 C-2 11 -2 11 -3.3359375 12.578125 C-4.82924338 13.79800867 -6.411056 14.907601 -8 16 C-8.33 15.01 -8.66 14.02 -9 13 C-7.68 12.01 -6.36 11.02 -5 10 C-6.65 10.33 -8.3 10.66 -10 11 C-8.38405168 8.95880212 -6.7143618 6.95927063 -5 5 C-4.34 5 -3.68 5 -3 5 C-2.690625 4.360625 -2.38125 3.72125 -2.0625 3.0625 C-1 1 -1 1 0 0 Z " fill="#C1CDD7" transform="translate(258,234)"/>
<path d="M0 0 C0.99 0.33 1.98 0.66 3 1 C2.34 1 1.68 1 1 1 C0.938125 1.556875 0.87625 2.11375 0.8125 2.6875 C-0.36526823 6.03960959 -2.33435396 7.69785114 -5 10 C-5.886875 10.350625 -6.77375 10.70125 -7.6875 11.0625 C-10.16723474 11.80256311 -10.16723474 11.80256311 -11.3125 14.125 C-11.539375 14.74375 -11.76625 15.3625 -12 16 C-12.99 16 -13.98 16 -15 16 C-15 15.34 -15 14.68 -15 14 C-13.49609375 12.51953125 -13.49609375 12.51953125 -11.4375 10.8125 C-7.41324753 7.39798275 -3.67809995 3.78154651 0 0 Z " fill="#193077" transform="translate(237,210)"/>
<path d="M0 0 C1.33333333 0.33333333 2.66666667 0.66666667 4 1 C4.70125 1.0825 5.4025 1.165 6.125 1.25 C8 2 8 2 9.0625 4.25 C9.371875 5.1575 9.68125 6.065 10 7 C10.97236487 8.6829392 11.96564444 10.35443434 13 12 C10 12 10 12 7.51953125 9.8828125 C6.62621094 8.97273438 5.73289062 8.06265625 4.8125 7.125 C3.91144531 6.22007812 3.01039063 5.31515625 2.08203125 4.3828125 C0 2 0 2 0 0 Z " fill="#25B1A0" transform="translate(295,292)"/>
<path d="M0 0 C3.96 0 7.92 0 12 0 C12 0.33 12 0.66 12 1 C10.906875 1.103125 9.81375 1.20625 8.6875 1.3125 C4.52900863 2.03017896 4.52900863 2.03017896 2 5 C1.4939264 7.8028729 1.4939264 7.8028729 1.48828125 10.98046875 C1.45283203 12.14384766 1.41738281 13.30722656 1.38085938 14.50585938 C1.35830078 15.72080078 1.33574219 16.93574219 1.3125 18.1875 C1.27833984 19.41404297 1.24417969 20.64058594 1.20898438 21.90429688 C1.1264059 24.93610678 1.05728631 27.96762379 1 31 C0.67 31 0.34 31 0 31 C0 20.77 0 10.54 0 0 Z " fill="#06143F" transform="translate(204,230)"/>
<path d="M0 0 C4.89289165 -0.1238948 9.78486427 -0.21447509 14.67895508 -0.2746582 C16.34252839 -0.29975347 18.00599196 -0.33383796 19.66918945 -0.37719727 C22.06489153 -0.4380746 24.45913251 -0.46625769 26.85546875 -0.48828125 C27.96513252 -0.52699089 27.96513252 -0.52699089 29.09721375 -0.56648254 C33.12672729 -0.56865541 34.8195593 -0.14425008 38.0090332 2.40551758 C40 5 40 5 40 7 C38.0625 6.6875 38.0625 6.6875 36 6 C35.505 4.515 35.505 4.515 35 3 C32.0003383 1.50016915 28.88053039 1.76097945 25.5859375 1.68359375 C24.85629791 1.66281265 24.12665833 1.64203156 23.37490845 1.62062073 C21.04170237 1.55518083 18.70838279 1.49626632 16.375 1.4375 C14.79425905 1.39430947 13.21352961 1.35069501 11.6328125 1.30664062 C7.75532496 1.19950519 3.87772315 1.09822218 0 1 C0 0.67 0 0.34 0 0 Z " fill="#3A6897" transform="translate(216,158)"/>
<path d="M0 0 C0.804375 0.495 0.804375 0.495 1.625 1 C4.5391061 2.22699204 6.86867708 2.14233286 10 2 C10.103125 2.639375 10.20625 3.27875 10.3125 3.9375 C10.6528125 4.9584375 10.6528125 4.9584375 11 6 C11.99 6.33 12.98 6.66 14 7 C14 8.65 14 10.3 14 12 C8.08119807 8.86651662 3.78251522 5.67377283 0 0 Z " fill="#0A4777" transform="translate(236,258)"/>
<path d="M0 0 C1.98 0.99 1.98 0.99 4 2 C3.01 2.33 2.02 2.66 1 3 C1 12.9 1 22.8 1 33 C4.3 33 7.6 33 11 33 C11 33.33 11 33.66 11 34 C7.37 34 3.74 34 0 34 C0 22.78 0 11.56 0 0 Z " fill="#111367" transform="translate(158,159)"/>
<path d="M0 0 C1.70884005 1.62339805 3.37446717 3.29319053 5 5 C5 5.66 5 6.32 5 7 C6.32 7.33 7.64 7.66 9 8 C9 9.32 9 10.64 9 12 C4.57165324 10.60823388 1.96898547 8.56278256 -1 5 C-1 1 -1 1 0 0 Z " fill="#0E5B7B" transform="translate(263,278)"/>
<path d="M0 0 C0 0.66 0 1.32 0 2 C-0.66 2 -1.32 2 -2 2 C-2 2.66 -2 3.32 -2 4 C-2.66 4 -3.32 4 -4 4 C-4.33 4.99 -4.66 5.98 -5 7 C-5.66 7 -6.32 7 -7 7 C-7.25523437 7.59296875 -7.51046875 8.1859375 -7.7734375 8.796875 C-9.11816498 11.21224538 -10.49214367 12.51211706 -12.625 14.25 C-13.25664062 14.77078125 -13.88828125 15.2915625 -14.5390625 15.828125 C-15.02117187 16.21484375 -15.50328125 16.6015625 -16 17 C-14.71319566 14.16903046 -13.76074135 12.77241251 -11.4375 10.5625 C-8.77852744 7.76716987 -8.66942223 6.63400638 -8 3 C-5.11489807 0.11489807 -4.24478198 0 0 0 Z " fill="#99E7E0" transform="translate(336,217)"/>
<path d="M0 0 C0 0.99 0 1.98 0 3 C-0.99 3.33 -1.98 3.66 -3 4 C-4.20882096 6.00016466 -4.20882096 6.00016466 -5 8 C-5.66 8 -6.32 8 -7 8 C-7.226875 8.5775 -7.45375 9.155 -7.6875 9.75 C-9.33038023 12.5663661 -11.39533227 14.08077114 -14 16 C-13.67 15.236875 -13.34 14.47375 -13 13.6875 C-11.82563314 11.00930865 -11.82563314 11.00930865 -12 8 C-11.401875 7.731875 -10.80375 7.46375 -10.1875 7.1875 C-7.99556112 6.13168678 -7.99556112 6.13168678 -6.5625 4.5625 C-4.59754256 2.59754256 -2.40742934 1.36637882 0 0 Z " fill="#78A9C2" transform="translate(192,306)"/>
<path d="M0 0 C-0.125 2.75 -0.125 2.75 -1 6 C-4.0625 8.375 -4.0625 8.375 -7 10 C-7.33 9.01 -7.66 8.02 -8 7 C-9.32 7.99 -10.64 8.98 -12 10 C-9.84738975 5.19802329 -5.75284672 0 0 0 Z " fill="#48767C" transform="translate(277,232)"/>
<path d="M0 0 C2.475 0.495 2.475 0.495 5 1 C5 1.99 5 2.98 5 4 C5.7425 4.226875 6.485 4.45375 7.25 4.6875 C10.56201872 6.26823621 11.99479838 7.95506421 14 11 C14 11.99 14 12.98 14 14 C13.34 14 12.68 14 12 14 C12 13.34 12 12.68 12 12 C11.34 12 10.68 12 10 12 C10 11.34 10 10.68 10 10 C9.34 10 8.68 10 8 10 C8 9.34 8 8.68 8 8 C7.34 8 6.68 8 6 8 C6 7.34 6 6.68 6 6 C5.34 6 4.68 6 4 6 C4 5.34 4 4.68 4 4 C3.34 4 2.68 4 2 4 C1.34 2.68 0.68 1.36 0 0 Z " fill="#87E5D5" transform="translate(322,322)"/>
<path d="M0 0 C0.33 0 0.66 0 1 0 C1 7.92 1 15.84 1 24 C0.34 24 -0.32 24 -1 24 C-1 24.66 -1 25.32 -1 26 C-1.66 26 -2.32 26 -3 26 C-3 26.66 -3 27.32 -3 28 C-3.66 28 -4.32 28 -5 28 C-5 26.68 -5 25.36 -5 24 C-4.01 24 -3.02 24 -2 24 C-0.79483714 19.10845663 -0.66538566 14.19724878 -0.4375 9.1875 C-0.39431641 8.30384766 -0.35113281 7.42019531 -0.30664062 6.50976562 C-0.20108464 4.34000377 -0.10008929 2.1700209 0 0 Z " fill="#42C9B9" transform="translate(341,189)"/>
<path d="M0 0 C12.54 0 25.08 0 38 0 C38 0.99 38 1.98 38 3 C37.01 3 36.02 3 35 3 C35 2.34 35 1.68 35 1 C34.29504395 1.03552979 33.59008789 1.07105957 32.86376953 1.10766602 C29.61783644 1.26690549 26.37147635 1.41476709 23.125 1.5625 C22.01640625 1.61857422 20.9078125 1.67464844 19.765625 1.73242188 C13.06794989 2.02790754 6.64675992 1.90159021 0 1 C0 0.67 0 0.34 0 0 Z " fill="#419AA7" transform="translate(280,158)"/>
<path d="M0 0 C6.03331362 4.98404168 11.5184171 10.41915303 17 16 C16.67 16.66 16.34 17.32 16 18 C15.55269531 17.61328125 15.10539062 17.2265625 14.64453125 16.828125 C14.03996094 16.30734375 13.43539063 15.7865625 12.8125 15.25 C12.17441406 14.69957031 11.53632813 14.14914062 10.87890625 13.58203125 C9.37667562 12.31715931 7.82105781 11.11579336 6.25 9.9375 C2.93206967 7.08039333 1.37200002 4.11600006 0 0 Z " fill="#98DDDC" transform="translate(302,254)"/>
<path d="M0 0 C1.32 0 2.64 0 4 0 C4 0.66 4 1.32 4 2 C5.32 1.67 6.64 1.34 8 1 C10.83374881 4.20336822 11.5205537 6.78087253 12 11 C10 9.625 10 9.625 8 8 C8 7.34 8 6.68 8 6 C7.4225 5.938125 6.845 5.87625 6.25 5.8125 C3.11309013 4.67972699 1.90832496 2.65802405 0 0 Z " fill="#2985A5" transform="translate(272,165)"/>
<path d="M0 0 C18.81 0.495 18.81 0.495 38 1 C38 1.33 38 1.66 38 2 C33.88850113 2.16728213 29.77680194 2.32787468 25.66479492 2.48217773 C24.26498319 2.53566026 22.86524096 2.59099434 21.46557617 2.64819336 C19.4577104 2.72992949 17.44955813 2.80453025 15.44140625 2.87890625 C13.62684937 2.94960327 13.62684937 2.94960327 11.77563477 3.02172852 C9 3 9 3 8 2 C6.65252916 1.76924918 5.29622435 1.58846937 3.9375 1.4375 C2.638125 1.293125 1.33875 1.14875 0 1 C0 0.67 0 0.34 0 0 Z " fill="#22538A" transform="translate(230,191)"/>
<path d="M0 0 C0.66 0.33 1.32 0.66 2 1 C-3.61 6.61 -9.22 12.22 -15 18 C-15.99 17.67 -16.98 17.34 -18 17 C-17.505 15.515 -17.505 15.515 -17 14 C-16.01 14 -15.02 14 -14 14 C-12.29088974 12.70602736 -12.29088974 12.70602736 -10.64453125 10.9375 C-9.71157227 9.99003906 -9.71157227 9.99003906 -8.75976562 9.0234375 C-8.11716797 8.35570312 -7.47457031 7.68796875 -6.8125 7 C-6.15830078 6.33226562 -5.50410156 5.66453125 -4.83007812 4.9765625 C-3.21313865 3.32421559 -1.60359509 1.66528399 0 0 Z " fill="#C7E3EE" transform="translate(174,324)"/>
<path d="M0 0 C4.17443363 3.50074982 8.3145494 6.97950843 12 11 C12 11.66 12 12.32 12 13 C13.32 13.66 14.64 14.32 16 15 C16 15.99 16 16.98 16 18 C15.608125 17.54625 15.21625 17.0925 14.8125 16.625 C13.03617861 14.82633906 13.03617861 14.82633906 10.375 14.0625 C9.59125 13.711875 8.8075 13.36125 8 13 C7.85949219 12.39285156 7.71898437 11.78570312 7.57421875 11.16015625 C6.83367626 8.37430592 5.54435258 7.3073456 3.4375 5.375 C2.25665005 4.28681232 1.10189664 3.16806798 0 2 C0 1.34 0 0.68 0 0 Z " fill="#B0D7E2" transform="translate(261,168)"/>
<path d="M0 0 C0 0.99 0 1.98 0 3 C-0.66 3.66 -1.32 4.32 -2 5 C-1.74525692 9.58537549 -1.14031285 12.58661647 2 16 C-2.2742558 14.4169423 -4.26531794 11.49431596 -7 8 C-6.02133662 6.85373678 -5.04205413 5.70800212 -4.0625 4.5625 C-3.51722656 3.92441406 -2.97195312 3.28632813 -2.41015625 2.62890625 C-1.63204305 1.73008851 -0.84063472 0.84063472 0 0 Z " fill="#A5BAC7" transform="translate(247,245)"/>
<path d="M0 0 C0.33 1.65 0.66 3.3 1 5 C0.01 5.66 -0.98 6.32 -2 7 C-2.33 6.34 -2.66 5.68 -3 5 C-3.639375 4.855625 -4.27875 4.71125 -4.9375 4.5625 C-7 4 -7 4 -9 1 C-5.94152152 0.45627049 -3.11227195 0 0 0 Z " fill="#031655" transform="translate(219,230)"/>
<path d="M0 0 C2.64 0.33 5.28 0.66 8 1 C8.12375 1.639375 8.2475 2.27875 8.375 2.9375 C8.58125 3.618125 8.7875 4.29875 9 5 C9.66 5.33 10.32 5.66 11 6 C10.01 6 9.02 6 8 6 C8.33 6.99 8.66 7.98 9 9 C7 9 7 9 4.375 6.625 C2 4 2 4 2 2 C1.34 2 0.68 2 0 2 C0 1.34 0 0.68 0 0 Z " fill="#5DBFB5" transform="translate(287,286)"/>
<path d="M0 0 C3.80443255 0.54349036 5.6081779 2.03084153 8 5 C8.75 7.75 8.75 7.75 9 10 C6.00306862 9.00102287 4.97290587 8.34869747 3 6 C3 5.34 3 4.68 3 4 C1.68 3.34 0.36 2.68 -1 2 C-0.67 1.34 -0.34 0.68 0 0 Z " fill="#157488" transform="translate(276,293)"/>
<path d="M0 0 C3.75180831 1.70236236 6.39511164 4.00252547 9.4140625 6.7578125 C10.92666909 8.20554064 10.92666909 8.20554064 13 8 C13.66 10.31 14.32 12.62 15 15 C14.34 15 13.68 15 13 15 C13 14.34 13 13.68 13 13 C12.34 13 11.68 13 11 13 C9.4140625 11.42578125 9.4140625 11.42578125 7.625 9.3125 C6.69880859 8.22388672 6.69880859 8.22388672 5.75390625 7.11328125 C3.80538537 4.76550888 1.8784002 2.40435225 0 0 Z " fill="#8ECCC7" transform="translate(272,271)"/>
<path d="M0 0 C4.62 0 9.24 0 14 0 C14 0.66 14 1.32 14 2 C10.7 2.66 7.4 3.32 4 4 C3.67 3.01 3.34 2.02 3 1 C2.01 0.67 1.02 0.34 0 0 Z " fill="#013162" transform="translate(269,193)"/>
<path d="M0 0 C1.84836168 3.69672336 2.23040184 4.53135065 2.0625 8.3125 C1.96232655 12.34615085 2.32356514 16.02594522 3 20 C2.01 20.66 1.02 21.32 0 22 C0 14.74 0 7.48 0 0 Z " fill="#18377F" transform="translate(210,239)"/>
<path d="M0 0 C0.33 0 0.66 0 1 0 C1.33 3.63 1.66 7.26 2 11 C-3.46875 6.5078125 -3.46875 6.5078125 -5 5 C-5 4.34 -5 3.68 -5 3 C-3.68 3 -2.36 3 -1 3 C-0.67 2.01 -0.34 1.02 0 0 Z " fill="#24BEA5" transform="translate(315,304)"/>
<path d="M0 0 C2.39453125 -0.15234375 2.39453125 -0.15234375 5 0 C6.6875 2.4375 6.6875 2.4375 8 5 C8.66 5.33 9.32 5.66 10 6 C9.67 6.99 9.34 7.98 9 9 C5.51127585 7.83709195 4.90023136 6.86032391 2.8125 3.9375 C2.28269531 3.20402344 1.75289063 2.47054688 1.20703125 1.71484375 C0.80871094 1.14894531 0.41039062 0.58304687 0 0 Z " fill="#6DC3CA" transform="translate(268,329)"/>
<path d="M0 0 C2.5 2.25 2.5 2.25 5 5 C5 6.32 5 7.64 5 9 C3.5 7.625 3.5 7.625 2 6 C2 5.34 2 4.68 2 4 C-0.88575819 4.39803561 -1.82189513 4.79009069 -3.75 7.0625 C-4.1625 7.701875 -4.575 8.34125 -5 9 C-4.5206753 4.68607774 -3.2542015 2.83430453 0 0 Z " fill="#29A5A4" transform="translate(300,253)"/>
<path d="M0 0 C-1.3094668 1.33631236 -2.62265485 2.66897925 -3.9375 4 C-4.66839844 4.7425 -5.39929688 5.485 -6.15234375 6.25 C-8 8 -8 8 -9 8 C-9.36585366 3.48780488 -9.36585366 3.48780488 -7.6875 1.25 C-4.77156235 -0.90995382 -3.45696967 -1.15232322 0 0 Z " fill="#376899" transform="translate(274,219)"/>
<path d="M0 0 C4.79834628 1.7136951 6.80715961 5.61431921 9 10 C6.125 9.3125 6.125 9.3125 3 8 C1.625 5.375 1.625 5.375 1 3 C0.34 3 -0.32 3 -1 3 C-0.67 2.01 -0.34 1.02 0 0 Z " fill="#4586AA" transform="translate(256,164)"/>
<path d="M0 0 C0.99 1.32 1.98 2.64 3 4 C2.34 5.32 1.68 6.64 1 8 C0.34 8 -0.32 8 -1 8 C-1 7.34 -1 6.68 -1 6 C-1.99 6.33 -2.98 6.66 -4 7 C-3.39816251 4.97954558 -2.72693904 2.97888961 -2 1 C-1.34 0.67 -0.68 0.34 0 0 Z " fill="#1EA8AF" transform="translate(293,216)"/>
<path d="M0 0 C1.65 0 3.3 0 5 0 C5.12375 0.639375 5.2475 1.27875 5.375 1.9375 C5.684375 2.9584375 5.684375 2.9584375 6 4 C6.66 4.33 7.32 4.66 8 5 C8 6.66666667 8 8.33333333 8 10 C6.29115995 8.37660195 4.62553283 6.70680947 3 5 C3 4.34 3 3.68 3 3 C2.34 3 1.68 3 1 3 C0.67 2.01 0.34 1.02 0 0 Z " fill="#95CCD8" transform="translate(251,311)"/>
<path d="M0 0 C0 1.65 0 3.3 0 5 C-0.99 5.33 -1.98 5.66 -3 6 C-4.37562854 4.71034824 -5.70766393 3.37310707 -7 2 C-7 1.34 -7 0.68 -7 0 C-3.86650268 -1.04449911 -3.01031744 -0.93423645 0 0 Z " fill="#205592" transform="translate(224,273)"/>
<path d="M0 0 C1.485 0.99 1.485 0.99 3 2 C3 2.66 3 3.32 3 4 C3.66 4 4.32 4 5 4 C5 4.66 5 5.32 5 6 C5.66 6 6.32 6 7 6 C7 6.66 7 7.32 7 8 C7.66 8 8.32 8 9 8 C8.67 8.66 8.34 9.32 8 10 C7.01 10 6.02 10 5 10 C5 9.34 5 8.68 5 8 C4.01 8.33 3.02 8.66 2 9 C1.34 6.03 0.68 3.06 0 0 Z " fill="#86D7D7" transform="translate(318,158)"/>
<path d="M0 0 C0.66 0 1.32 0 2 0 C2 0.66 2 1.32 2 2 C2.99 2.33 3.98 2.66 5 3 C2.69 4.98 0.38 6.96 -2 9 C-1.34 6.03 -0.68 3.06 0 0 Z " fill="#2D6D9B" transform="translate(160,331)"/>
<path d="M0 0 C3.34373475 0.55728913 6.03312999 1.35173889 9 3 C8.67 3.99 8.34 4.98 8 6 C4.74456771 5.65120368 3.98126893 4.97866739 1.75 2.4375 C1.1725 1.633125 0.595 0.82875 0 0 Z " fill="#0B4F77" transform="translate(251,270)"/>
<path d="M0 0 C2.35043607 1.98070455 4.67790392 3.98619077 7 6 C7.804375 6.680625 8.60875 7.36125 9.4375 8.0625 C11 10 11 10 11.25 12.75 C11.1675 13.4925 11.085 14.235 11 15 C10.7421875 14.40058594 10.484375 13.80117187 10.21875 13.18359375 C8.8960207 10.81370376 7.6400633 9.6992857 5.5 8.0625 C2.54575023 5.64873668 1.00183473 3.784709 0 0 Z " fill="#43C3B8" transform="translate(331,174)"/>
<path d="M0 0 C0.99 0.33 1.98 0.66 3 1 C2.67 1.99 2.34 2.98 2 4 C2.66 4 3.32 4 4 4 C4 5.98 4 7.96 4 10 C3.34 10 2.68 10 2 10 C2 9.01 2 8.02 2 7 C1.01 6.67 0.02 6.34 -1 6 C-0.67 4.02 -0.34 2.04 0 0 Z " fill="#25B4C2" transform="translate(276,328)"/>
<path d="M0 0 C1.32 0.33 2.64 0.66 4 1 C3.67 1.66 3.34 2.32 3 3 C2.01 3 1.02 3 0 3 C0 4.65 0 6.3 0 8 C-0.99 8 -1.98 8 -3 8 C-3.33 6.35 -3.66 4.7 -4 3 C-3.01 2.67 -2.02 2.34 -1 2 C-0.67 1.34 -0.34 0.68 0 0 Z " fill="#2382AB" transform="translate(279,159)"/>
<path d="M0 0 C0.66 0.33 1.32 0.66 2 1 C2.103125 1.721875 2.20625 2.44375 2.3125 3.1875 C3.27225743 7.1137804 5.29855295 9.02148146 8 12 C7.01 12.495 7.01 12.495 6 13 C4.79449706 11.78848458 3.61107253 10.55497111 2.4375 9.3125 C1.77621094 8.62800781 1.11492187 7.94351562 0.43359375 7.23828125 C-1 5 -1 5 -0.71484375 2.23046875 C-0.47894531 1.49441406 -0.24304688 0.75835937 0 0 Z " fill="#32B2B3" transform="translate(299,313)"/>
<path d="M0 0 C1.32 0.33 2.64 0.66 4 1 C4 2.32 4 3.64 4 5 C5.65 5.33 7.3 5.66 9 6 C9 7.32 9 8.64 9 10 C8.34 10 7.68 10 7 10 C7 9.34 7 8.68 7 8 C6.34 8 5.68 8 5 8 C5 7.34 5 6.68 5 6 C4.34 6 3.68 6 3 6 C0 2.53846154 0 2.53846154 0 0 Z " fill="#889CB4" transform="translate(204,261)"/>
<path d="M0 0 C0.99 0.33 1.98 0.66 3 1 C0.03 3.97 -2.94 6.94 -6 10 C-6 6.89448334 -5.4606285 5.64738916 -4 3 C-3.01 3 -2.02 3 -1 3 C-0.67 2.01 -0.34 1.02 0 0 Z " fill="#38B6A9" transform="translate(309,240)"/>
<path d="M0 0 C1.98 0.495 1.98 0.495 4 1 C4 2.98 4 4.96 4 7 C2.0625 6.1875 2.0625 6.1875 0 5 C-0.33 4.01 -0.66 3.02 -1 2 C-0.67 1.34 -0.34 0.68 0 0 Z " fill="#1E9FA7" transform="translate(283,230)"/>
<path d="M0 0 C0.99 0.33 1.98 0.66 3 1 C3 2.65 3 4.3 3 6 C4.32 5.67 5.64 5.34 7 5 C6.67 6.98 6.34 8.96 6 11 C3.32799272 9.36231812 2.16030771 8.58293712 1.3125 5.5 C1.209375 4.675 1.10625 3.85 1 3 C0.67 2.01 0.34 1.02 0 0 Z " fill="#289FB4" transform="translate(292,179)"/>
<path d="M0 0 C1.98 0.99 1.98 0.99 4 2 C4 2.66 4 3.32 4 4 C4.66 4 5.32 4 6 4 C6.66 5.32 7.32 6.64 8 8 C6.68 8 5.36 8 4 8 C3.67 7.34 3.34 6.68 3 6 C2.01 5.34 1.02 4.68 0 4 C0 2.68 0 1.36 0 0 Z " fill="#72B5B9" transform="translate(291,305)"/>
<path d="M0 0 C0.99 0.33 1.98 0.66 3 1 C1.63016497 4.16115776 1.0109362 4.9927092 -2 7 C-2.33 5.35 -2.66 3.7 -3 2 C-2.01 1.34 -1.02 0.68 0 0 Z " fill="#5FD1C5" transform="translate(317,232)"/>
<path d="M0 0 C0.33 1.32 0.66 2.64 1 4 C-0.2065625 4.6496875 -0.2065625 4.6496875 -1.4375 5.3125 C-4.27846354 6.80474002 -4.27846354 6.80474002 -5 10 C-6.32 9.67 -7.64 9.34 -9 9 C-6.03 6.03 -3.06 3.06 0 0 Z " fill="#BCD1E0" transform="translate(268,224)"/>
<path d="M0 0 C1.9375 0.75 1.9375 0.75 4 2 C4.36162029 3.32594105 4.69728039 4.65938457 5 6 C5.99 6.33 6.98 6.66 8 7 C7.67 8.32 7.34 9.64 7 11 C5.66104368 9.33784732 4.32869858 7.67036393 3 6 C2.4225 5.278125 1.845 4.55625 1.25 3.8125 C0 2 0 2 0 0 Z " fill="#30EDCB" transform="translate(328,322)"/>
<path d="M0 0 C0.99 0.33 1.98 0.66 3 1 C3 1.66 3 2.32 3 3 C3.66 3.33 4.32 3.66 5 4 C4.67 5.98 4.34 7.96 4 10 C3.01 9.67 2.02 9.34 1 9 C1.33 6.69 1.66 4.38 2 2 C1.34 2 0.68 2 0 2 C0 1.34 0 0.68 0 0 Z " fill="#25A6B7" transform="translate(267,320)"/>
<path d="M0 0 C0.433125 0.45375 0.86625 0.9075 1.3125 1.375 C3.10798342 3.20024334 3.10798342 3.20024334 6 5 C6 6.32 6 7.64 6 9 C4.125 8.75 4.125 8.75 2 8 C-0.02755186 5.06004981 0 3.72295997 0 0 Z " fill="#1E4886" transform="translate(210,262)"/>
<path d="M0 0 C2 0 2 0 3.69140625 1.6796875 C4.30886719 2.40414063 4.92632812 3.12859375 5.5625 3.875 C6.18253906 4.59429687 6.80257813 5.31359375 7.44140625 6.0546875 C9 8 9 8 10 10 C7.67578125 9.78515625 7.67578125 9.78515625 5 9 C3.41796875 6.93359375 3.41796875 6.93359375 2.1875 4.4375 C1.76855469 3.61121094 1.34960938 2.78492188 0.91796875 1.93359375 C0.61503906 1.29550781 0.31210937 0.65742188 0 0 Z " fill="#93BAC9" transform="translate(263,276)"/>
<path d="M0 0 C1.98 0 3.96 0 6 0 C6 2.31 6 4.62 6 7 C3.95880212 5.38405168 1.95927063 3.7143618 0 2 C0 1.34 0 0.68 0 0 Z " fill="#73A3B2" transform="translate(266,158)"/>
<path d="M0 0 C2.16874252 0.50603992 3.99967627 0.99983813 6 2 C6 3.65 6 5.3 6 7 C3.95880212 5.38405168 1.95927063 3.7143618 0 2 C0 1.34 0 0.68 0 0 Z " fill="#2BAA99" transform="translate(295,292)"/>
<path d="M0 0 C0.66 0.66 1.32 1.32 2 2 C-0.64 4.31 -3.28 6.62 -6 9 C-6 6 -6 6 -4.6875 4.39453125 C-4.130625 3.87246094 -3.57375 3.35039062 -3 2.8125 C-2.443125 2.28269531 -1.88625 1.75289062 -1.3125 1.20703125 C-0.6628125 0.60955078 -0.6628125 0.60955078 0 0 Z " fill="#0B6370" transform="translate(270,246)"/>
<path d="M0 0 C0.66 0.33 1.32 0.66 2 1 C-0.48399488 4.85019206 -0.48399488 4.85019206 -2.9375 5.5625 C-3.618125 5.706875 -4.29875 5.85125 -5 6 C-7.2072358 7.48800372 -7.2072358 7.48800372 -9 9 C-7.48328036 4.44984107 -3.83108947 2.49942736 0 0 Z " fill="#8EC5C5" transform="translate(281,226)"/>
<path d="M0 0 C0 2.83967231 -0.40267181 5.23735711 -1 8 C-2.98 8.66 -4.96 9.32 -7 10 C-6.34 8.68 -5.68 7.36 -5 6 C-4.34 6 -3.68 6 -3 6 C-2.814375 5.071875 -2.814375 5.071875 -2.625 4.125 C-2 2 -2 2 0 0 Z " fill="#495D8C" transform="translate(245,200)"/>
<path d="M0 0 C2.31 0.33 4.62 0.66 7 1 C6.21625 1.598125 5.4325 2.19625 4.625 2.8125 C1.85425677 4.91085249 1.85425677 4.91085249 0 8 C0 5.36 0 2.72 0 0 Z " fill="#0B0D60" transform="translate(158,198)"/>
<path d="M0 0 C3.3 0.33 6.6 0.66 10 1 C6.23312136 2.88343932 4.97041037 3.22057835 1 3 C0.67 2.01 0.34 1.02 0 0 Z " fill="#03184B" transform="translate(240,193)"/>
<path d="M0 0 C5.62134251 1.46643718 5.62134251 1.46643718 7.375 3.9375 C8 6 8 6 8 9 C6.66368764 7.6905332 5.33102075 6.37734515 4 5.0625 C3.2575 4.33160156 2.515 3.60070312 1.75 2.84765625 C0 1 0 1 0 0 Z " fill="#95B6CD" transform="translate(219,278)"/>
<path d="M0 0 C2 3 2 3 2 5 C1.34 5 0.68 5 0 5 C0 5.66 0 6.32 0 7 C-0.66 7 -1.32 7 -2 7 C-2 7.66 -2 8.32 -2 9 C-2.66 9 -3.32 9 -4 9 C-4 7.68 -4 6.36 -4 5 C-3.01 5 -2.02 5 -1 5 C-0.67 3.35 -0.34 1.7 0 0 Z " fill="#83E4D7" transform="translate(340,208)"/>
<path d="M0 0 C0.99 0.66 1.98 1.32 3 2 C2.34 2.66 1.68 3.32 1 4 C1 5.32 1 6.64 1 8 C0.34 8 -0.32 8 -1 8 C-1 7.01 -1 6.02 -1 5 C-1.66 4.67 -2.32 4.34 -3 4 C-2.01 2.68 -1.02 1.36 0 0 Z " fill="#238DAB" transform="translate(285,168)"/>
<path d="M0 0 C0.99 0.99 1.98 1.98 3 3 C0.03 5.475 0.03 5.475 -3 8 C-3 7.01 -3 6.02 -3 5 C-2.34 5 -1.68 5 -1 5 C-1.33 4.01 -1.66 3.02 -2 2 C-1.34 1.34 -0.68 0.68 0 0 Z " fill="#33659F" transform="translate(262,225)"/>
<path d="M0 0 C1.32 0 2.64 0 4 0 C4 0.66 4 1.32 4 2 C4.99 2.33 5.98 2.66 7 3 C7.33 3.99 7.66 4.98 8 6 C4.74456771 5.65120368 3.98126893 4.97866739 1.75 2.4375 C1.1725 1.633125 0.595 0.82875 0 0 Z " fill="#70AEC0" transform="translate(272,165)"/>
<path d="M0 0 C1.65 0.33 3.3 0.66 5 1 C3.02 3.31 1.04 5.62 -1 8 C-1 5.16032769 -0.59732819 2.76264289 0 0 Z " fill="#8CBAD2" transform="translate(180,314)"/>
<path d="M0 0 C2.475 0.495 2.475 0.495 5 1 C6 4 6 4 5 7 C4.34 7 3.68 7 3 7 C2.67 6.01 2.34 5.02 2 4 C1.34 3.34 0.68 2.68 0 2 C0 1.34 0 0.68 0 0 Z " fill="#1F9AB9" transform="translate(258,312)"/>
<path d="M0 0 C5.875 3.75 5.875 3.75 7 6 C4.03 5.505 4.03 5.505 1 5 C0.67 3.35 0.34 1.7 0 0 Z " fill="#4F9CA6" transform="translate(284,299)"/>
<path d="M0 0 C0 1.32 0 2.64 0 4 C-4.875 2.25 -4.875 2.25 -6 0 C-3 -1 -3 -1 0 0 Z " fill="#0F6988" transform="translate(272,286)"/>
<path d="M0 0 C1.98 0 3.96 0 6 0 C6 1.65 6 3.3 6 5 C2.83884224 3.63016497 2.0072908 3.0109362 0 0 Z " fill="#215E90" transform="translate(224,281)"/>
<path d="M0 0 C0.99 0.33 1.98 0.66 3 1 C2.01 2.485 2.01 2.485 1 4 C0.34 4 -0.32 4 -1 4 C-1.33 4.99 -1.66 5.98 -2 7 C-2.6875 5.1875 -2.6875 5.1875 -3 3 C-1.5625 1.25 -1.5625 1.25 0 0 Z " fill="#E4E7E5" transform="translate(266,228)"/>
<path d="M0 0 C0.99 0 1.98 0 3 0 C3.33 0.99 3.66 1.98 4 3 C2.35 3.66 0.7 4.32 -1 5 C-1.33 4.01 -1.66 3.02 -2 2 C-1.34 1.34 -0.68 0.68 0 0 Z " fill="#2774A5" transform="translate(187,305)"/>
<path d="M0 0 C0.66 0 1.32 0 2 0 C2 0.66 2 1.32 2 2 C2.66 2 3.32 2 4 2 C4 2.66 4 3.32 4 4 C4.66 4 5.32 4 6 4 C6 4.66 6 5.32 6 6 C5.01 6 4.02 6 3 6 C3 5.34 3 4.68 3 4 C2.01 3.67 1.02 3.34 0 3 C0 2.01 0 1.02 0 0 Z " fill="#A2E8DF" transform="translate(321,274)"/>
<path d="M0 0 C0.66 0.66 1.32 1.32 2 2 C1.67 2.66 1.34 3.32 1 4 C1.39938767 6.09821215 1.39938767 6.09821215 2 8 C0 6.1875 0 6.1875 -2 4 C-2 3.01 -2 2.02 -2 1 C-1.34 0.67 -0.68 0.34 0 0 Z " fill="#1F4596" transform="translate(222,227)"/>
<path d="M0 0 C1.32 1.32 2.64 2.64 4 4 C3.67 4.99 3.34 5.98 3 7 C3 6.34 3 5.68 3 5 C1.68 5 0.36 5 -1 5 C-0.67 3.35 -0.34 1.7 0 0 Z " fill="#5FBCC6" transform="translate(298,188)"/>
<path d="" fill="#FFFFFF" transform="translate(0,0)"/>
<path d="" fill="#FFFFFF" transform="translate(0,0)"/>
<path d="" fill="#FFFFFF" transform="translate(0,0)"/>
<path d="" fill="#FFFFFF" transform="translate(0,0)"/>
<path d="" fill="#FFFFFF" transform="translate(0,0)"/>
<path d="" fill="#FFFFFF" transform="translate(0,0)"/>
<path d="" fill="#FFFFFF" transform="translate(0,0)"/>
<path d="" fill="#FFFFFF" transform="translate(0,0)"/>
<path d="" fill="#FFFFFF" transform="translate(0,0)"/>
<path d="" fill="#FFFFFF" transform="translate(0,0)"/>
<path d="" fill="#FFFFFF" transform="translate(0,0)"/>
<path d="" fill="#FFFFFF" transform="translate(0,0)"/>
<path d="" fill="#FFFFFF" transform="translate(0,0)"/>
<path d="" fill="#FFFFFF" transform="translate(0,0)"/>
<path d="" fill="#FFFFFF" transform="translate(0,0)"/>
<path d="" fill="#FFFFFF" transform="translate(0,0)"/>
<path d="" fill="#FFFFFF" transform="translate(0,0)"/>
<path d="" fill="#FFFFFF" transform="translate(0,0)"/>
<path d="" fill="#FFFFFF" transform="translate(0,0)"/>
<path d="" fill="#FFFFFF" transform="translate(0,0)"/>
<path d="" fill="#FFFFFF" transform="translate(0,0)"/>
<path d="" fill="#FFFFFF" transform="translate(0,0)"/>
<path d="" fill="#FFFFFF" transform="translate(0,0)"/>
<path d="" fill="#FFFFFF" transform="translate(0,0)"/>
<path d="" fill="#FFFFFF" transform="translate(0,0)"/>
<path d="" fill="#FFFFFF" transform="translate(0,0)"/>
<path d="" fill="#FFFFFF" transform="translate(0,0)"/>
<path d="" fill="#FFFFFF" transform="translate(0,0)"/>
<path d="" fill="#FFFFFF" transform="translate(0,0)"/>
<path d="" fill="#FFFFFF" transform="translate(0,0)"/>
<path d="" fill="#FFFFFF" transform="translate(0,0)"/>
<path d="" fill="#FFFFFF" transform="translate(0,0)"/>
<path d="" fill="#FFFFFF" transform="translate(0,0)"/>
<path d="" fill="#FFFFFF" transform="translate(0,0)"/>
<path d="" fill="#FFFFFF" transform="translate(0,0)"/>
<path d="" fill="#FFFFFF" transform="translate(0,0)"/>
<path d="" fill="#FFFFFF" transform="translate(0,0)"/>
<path d="" fill="#FFFFFF" transform="translate(0,0)"/>
<path d="" fill="#FFFFFF" transform="translate(0,0)"/>
<path d="" fill="#FFFFFF" transform="translate(0,0)"/>
<path d="" fill="#FFFFFF" transform="translate(0,0)"/>
<path d="" fill="#FFFFFF" transform="translate(0,0)"/>
<path d="" fill="#FFFFFF" transform="translate(0,0)"/>
<path d="" fill="#FFFFFF" transform="translate(0,0)"/>
<path d="" fill="#FFFFFF" transform="translate(0,0)"/>
<path d="" fill="#FFFFFF" transform="translate(0,0)"/>
<path d="" fill="#FFFFFF" transform="translate(0,0)"/>
<path d="" fill="#FFFFFF" transform="translate(0,0)"/>
<path d="" fill="#FFFFFF" transform="translate(0,0)"/>
<path d="" fill="#FFFFFF" transform="translate(0,0)"/>
<path d="" fill="#FFFFFF" transform="translate(0,0)"/>
<path d="" fill="#FFFFFF" transform="translate(0,0)"/>
<path d="" fill="#FFFFFF" transform="translate(0,0)"/>
<path d="" fill="#FFFFFF" transform="translate(0,0)"/>
<path d="" fill="#FFFFFF" transform="translate(0,0)"/>
<path d="" fill="#FFFFFF" transform="translate(0,0)"/>
<path d="" fill="#FFFFFF" transform="translate(0,0)"/>
<path d="" fill="#FFFFFF" transform="translate(0,0)"/>
<path d="" fill="#FFFFFF" transform="translate(0,0)"/>
<path d="" fill="#FFFFFF" transform="translate(0,0)"/>
<path d="" fill="#FFFFFF" transform="translate(0,0)"/>
<path d="" fill="#FFFFFF" transform="translate(0,0)"/>
<path d="" fill="#FFFFFF" transform="translate(0,0)"/>
<path d="" fill="#FFFFFF" transform="translate(0,0)"/>
<path d="" fill="#FFFFFF" transform="translate(0,0)"/>
<path d="" fill="#FFFFFF" transform="translate(0,0)"/>
<path d="" fill="#FFFFFF" transform="translate(0,0)"/>
<path d="" fill="#FFFFFF" transform="translate(0,0)"/>
<path d="" fill="#FFFFFF" transform="translate(0,0)"/>
<path d="" fill="#FFFFFF" transform="translate(0,0)"/>
<path d="" fill="#FFFFFF" transform="translate(0,0)"/>
<path d="" fill="#FFFFFF" transform="translate(0,0)"/>
<path d="" fill="#FFFFFF" transform="translate(0,0)"/>
<path d="" fill="#FFFFFF" transform="translate(0,0)"/>
<path d="" fill="#FFFFFF" transform="translate(0,0)"/>
<path d="" fill="#FFFFFF" transform="translate(0,0)"/>
<path d="" fill="#FFFFFF" transform="translate(0,0)"/>
<path d="" fill="#FFFFFF" transform="translate(0,0)"/>
<path d="" fill="#FFFFFF" transform="translate(0,0)"/>
<path d="" fill="#FFFFFF" transform="translate(0,0)"/>
<path d="" fill="#FFFFFF" transform="translate(0,0)"/>
<path d="" fill="#FFFFFF" transform="translate(0,0)"/>
<path d="" fill="#FFFFFF" transform="translate(0,0)"/>
<path d="" fill="#FFFFFF" transform="translate(0,0)"/>
<path d="" fill="#FFFFFF" transform="translate(0,0)"/>
</svg>
